<?xml version="1.0" encoding="utf-8" standalone="no"?>
<!DOCTYPE svg PUBLIC "-//W3C//DTD SVG 1.1//EN"
  "http://www.w3.org/Graphics/SVG/1.1/DTD/svg11.dtd">
<svg xmlns:xlink="http://www.w3.org/1999/xlink" width="936pt" height="273.6pt" viewBox="0 0 936 273.6" xmlns="http://www.w3.org/2000/svg" version="1.1">
 <metadata>
  <rdf:RDF xmlns:dc="http://purl.org/dc/elements/1.1/" xmlns:cc="http://creativecommons.org/ns#" xmlns:rdf="http://www.w3.org/1999/02/22-rdf-syntax-ns#">
   <cc:Work>
    <dc:type rdf:resource="http://purl.org/dc/dcmitype/StillImage"/>
    <dc:date>2026-10-03T20:02:16.220958</dc:date>
    <dc:format>image/svg+xml</dc:format>
    <dc:creator>
     <cc:Agent>
      <dc:title>Matplotlib v3.10.5, https://matplotlib.org/</dc:title>
     </cc:Agent>
    </dc:creator>
   </cc:Work>
  </rdf:RDF>
 </metadata>
 <defs>
  <style type="text/css">*{stroke-linejoin: round; stroke-linecap: butt}</style>
 </defs>
 <g id="figure_1">
  <g id="patch_1">
   <path d="M 0 273.6 
L 936 273.6 
L 936 0 
L 0 0 
z
" style="fill: #ffffff"/>
  </g>
  <g id="axes_1">
   <g id="patch_2">
    <path d="M 36.403365 240.24351 
L 306.931963 240.24351 
L 306.931963 35.732595 
L 36.403365 35.732595 
z
" style="fill: #ffffff"/>
   </g>
   <g id="patch_3">
    <path d="M 48.700119 240.24351 
L 158.004603 240.24351 
L 158.004603 125.20612 
L 48.700119 125.20612 
z
" clip-path="url(#p87b18098c3)" style="fill: #4477aa"/>
   </g>
   <g id="patch_4">
    <path d="M 185.330724 240.24351 
L 294.635208 240.24351 
L 294.635208 125.20612 
L 185.330724 125.20612 
z
" clip-path="url(#p87b18098c3)" style="fill: #ee9944"/>
   </g>
   <g id="matplotlib.axis_1">
    <g id="xtick_1">
     <g id="line2d_1">
      <defs>
       <path id="m338134fa33" d="M 0 0 
L 0 3.5 
" style="stroke: #000000; stroke-width: 0.8"/>
      </defs>
      <g>
       <use xlink:href="#m338134fa33" x="103.352361" y="240.24351" style="stroke: #000000; stroke-width: 0.8"/>
      </g>
     </g>
     <g id="text_1">
      <!-- Combat -->
      <g transform="translate(83.73283 254.841947) scale(0.1 -0.1)">
       <defs>
        <path id="DejaVuSans-43" d="M 4122 4306 
L 4122 3641 
Q 3803 3938 3442 4084 
Q 3081 4231 2675 4231 
Q 1875 4231 1450 3742 
Q 1025 3253 1025 2328 
Q 1025 1406 1450 917 
Q 1875 428 2675 428 
Q 3081 428 3442 575 
Q 3803 722 4122 1019 
L 4122 359 
Q 3791 134 3420 21 
Q 3050 -91 2638 -91 
Q 1578 -91 968 557 
Q 359 1206 359 2328 
Q 359 3453 968 4101 
Q 1578 4750 2638 4750 
Q 3056 4750 3426 4639 
Q 3797 4528 4122 4306 
z
" transform="scale(0.015625)"/>
        <path id="DejaVuSans-6f" d="M 1959 3097 
Q 1497 3097 1228 2736 
Q 959 2375 959 1747 
Q 959 1119 1226 758 
Q 1494 397 1959 397 
Q 2419 397 2687 759 
Q 2956 1122 2956 1747 
Q 2956 2369 2687 2733 
Q 2419 3097 1959 3097 
z
M 1959 3584 
Q 2709 3584 3137 3096 
Q 3566 2609 3566 1747 
Q 3566 888 3137 398 
Q 2709 -91 1959 -91 
Q 1206 -91 779 398 
Q 353 888 353 1747 
Q 353 2609 779 3096 
Q 1206 3584 1959 3584 
z
" transform="scale(0.015625)"/>
        <path id="DejaVuSans-6d" d="M 3328 2828 
Q 3544 3216 3844 3400 
Q 4144 3584 4550 3584 
Q 5097 3584 5394 3201 
Q 5691 2819 5691 2113 
L 5691 0 
L 5113 0 
L 5113 2094 
Q 5113 2597 4934 2840 
Q 4756 3084 4391 3084 
Q 3944 3084 3684 2787 
Q 3425 2491 3425 1978 
L 3425 0 
L 2847 0 
L 2847 2094 
Q 2847 2600 2669 2842 
Q 2491 3084 2119 3084 
Q 1678 3084 1418 2786 
Q 1159 2488 1159 1978 
L 1159 0 
L 581 0 
L 581 3500 
L 1159 3500 
L 1159 2956 
Q 1356 3278 1631 3431 
Q 1906 3584 2284 3584 
Q 2666 3584 2933 3390 
Q 3200 3197 3328 2828 
z
" transform="scale(0.015625)"/>
        <path id="DejaVuSans-62" d="M 3116 1747 
Q 3116 2381 2855 2742 
Q 2594 3103 2138 3103 
Q 1681 3103 1420 2742 
Q 1159 2381 1159 1747 
Q 1159 1113 1420 752 
Q 1681 391 2138 391 
Q 2594 391 2855 752 
Q 3116 1113 3116 1747 
z
M 1159 2969 
Q 1341 3281 1617 3432 
Q 1894 3584 2278 3584 
Q 2916 3584 3314 3078 
Q 3713 2572 3713 1747 
Q 3713 922 3314 415 
Q 2916 -91 2278 -91 
Q 1894 -91 1617 61 
Q 1341 213 1159 525 
L 1159 0 
L 581 0 
L 581 4863 
L 1159 4863 
L 1159 2969 
z
" transform="scale(0.015625)"/>
        <path id="DejaVuSans-61" d="M 2194 1759 
Q 1497 1759 1228 1600 
Q 959 1441 959 1056 
Q 959 750 1161 570 
Q 1363 391 1709 391 
Q 2188 391 2477 730 
Q 2766 1069 2766 1631 
L 2766 1759 
L 2194 1759 
z
M 3341 1997 
L 3341 0 
L 2766 0 
L 2766 531 
Q 2569 213 2275 61 
Q 1981 -91 1556 -91 
Q 1019 -91 701 211 
Q 384 513 384 1019 
Q 384 1609 779 1909 
Q 1175 2209 1959 2209 
L 2766 2209 
L 2766 2266 
Q 2766 2663 2505 2880 
Q 2244 3097 1772 3097 
Q 1472 3097 1187 3025 
Q 903 2953 641 2809 
L 641 3341 
Q 956 3463 1253 3523 
Q 1550 3584 1831 3584 
Q 2591 3584 2966 3190 
Q 3341 2797 3341 1997 
z
" transform="scale(0.015625)"/>
        <path id="DejaVuSans-74" d="M 1172 4494 
L 1172 3500 
L 2356 3500 
L 2356 3053 
L 1172 3053 
L 1172 1153 
Q 1172 725 1289 603 
Q 1406 481 1766 481 
L 2356 481 
L 2356 0 
L 1766 0 
Q 1100 0 847 248 
Q 594 497 594 1153 
L 594 3053 
L 172 3053 
L 172 3500 
L 594 3500 
L 594 4494 
L 1172 4494 
z
" transform="scale(0.015625)"/>
       </defs>
       <use xlink:href="#DejaVuSans-43"/>
       <use xlink:href="#DejaVuSans-6f" transform="translate(69.824219 0)"/>
       <use xlink:href="#DejaVuSans-6d" transform="translate(131.005859 0)"/>
       <use xlink:href="#DejaVuSans-62" transform="translate(228.417969 0)"/>
       <use xlink:href="#DejaVuSans-61" transform="translate(291.894531 0)"/>
       <use xlink:href="#DejaVuSans-74" transform="translate(353.173828 0)"/>
      </g>
     </g>
    </g>
    <g id="xtick_2">
     <g id="line2d_2">
      <g>
       <use xlink:href="#m338134fa33" x="239.982966" y="240.24351" style="stroke: #000000; stroke-width: 0.8"/>
      </g>
     </g>
     <g id="text_2">
      <!-- Preparation -->
      <g transform="translate(211.100935 254.841947) scale(0.1 -0.1)">
       <defs>
        <path id="DejaVuSans-50" d="M 1259 4147 
L 1259 2394 
L 2053 2394 
Q 2494 2394 2734 2622 
Q 2975 2850 2975 3272 
Q 2975 3691 2734 3919 
Q 2494 4147 2053 4147 
L 1259 4147 
z
M 628 4666 
L 2053 4666 
Q 2838 4666 3239 4311 
Q 3641 3956 3641 3272 
Q 3641 2581 3239 2228 
Q 2838 1875 2053 1875 
L 1259 1875 
L 1259 0 
L 628 0 
L 628 4666 
z
" transform="scale(0.015625)"/>
        <path id="DejaVuSans-72" d="M 2631 2963 
Q 2534 3019 2420 3045 
Q 2306 3072 2169 3072 
Q 1681 3072 1420 2755 
Q 1159 2438 1159 1844 
L 1159 0 
L 581 0 
L 581 3500 
L 1159 3500 
L 1159 2956 
Q 1341 3275 1631 3429 
Q 1922 3584 2338 3584 
Q 2397 3584 2469 3576 
Q 2541 3569 2628 3553 
L 2631 2963 
z
" transform="scale(0.015625)"/>
        <path id="DejaVuSans-65" d="M 3597 1894 
L 3597 1613 
L 953 1613 
Q 991 1019 1311 708 
Q 1631 397 2203 397 
Q 2534 397 2845 478 
Q 3156 559 3463 722 
L 3463 178 
Q 3153 47 2828 -22 
Q 2503 -91 2169 -91 
Q 1331 -91 842 396 
Q 353 884 353 1716 
Q 353 2575 817 3079 
Q 1281 3584 2069 3584 
Q 2775 3584 3186 3129 
Q 3597 2675 3597 1894 
z
M 3022 2063 
Q 3016 2534 2758 2815 
Q 2500 3097 2075 3097 
Q 1594 3097 1305 2825 
Q 1016 2553 972 2059 
L 3022 2063 
z
" transform="scale(0.015625)"/>
        <path id="DejaVuSans-70" d="M 1159 525 
L 1159 -1331 
L 581 -1331 
L 581 3500 
L 1159 3500 
L 1159 2969 
Q 1341 3281 1617 3432 
Q 1894 3584 2278 3584 
Q 2916 3584 3314 3078 
Q 3713 2572 3713 1747 
Q 3713 922 3314 415 
Q 2916 -91 2278 -91 
Q 1894 -91 1617 61 
Q 1341 213 1159 525 
z
M 3116 1747 
Q 3116 2381 2855 2742 
Q 2594 3103 2138 3103 
Q 1681 3103 1420 2742 
Q 1159 2381 1159 1747 
Q 1159 1113 1420 752 
Q 1681 391 2138 391 
Q 2594 391 2855 752 
Q 3116 1113 3116 1747 
z
" transform="scale(0.015625)"/>
        <path id="DejaVuSans-69" d="M 603 3500 
L 1178 3500 
L 1178 0 
L 603 0 
L 603 3500 
z
M 603 4863 
L 1178 4863 
L 1178 4134 
L 603 4134 
L 603 4863 
z
" transform="scale(0.015625)"/>
        <path id="DejaVuSans-6e" d="M 3513 2113 
L 3513 0 
L 2938 0 
L 2938 2094 
Q 2938 2591 2744 2837 
Q 2550 3084 2163 3084 
Q 1697 3084 1428 2787 
Q 1159 2491 1159 1978 
L 1159 0 
L 581 0 
L 581 3500 
L 1159 3500 
L 1159 2956 
Q 1366 3272 1645 3428 
Q 1925 3584 2291 3584 
Q 2894 3584 3203 3211 
Q 3513 2838 3513 2113 
z
" transform="scale(0.015625)"/>
       </defs>
       <use xlink:href="#DejaVuSans-50"/>
       <use xlink:href="#DejaVuSans-72" transform="translate(58.552734 0)"/>
       <use xlink:href="#DejaVuSans-65" transform="translate(97.416016 0)"/>
       <use xlink:href="#DejaVuSans-70" transform="translate(158.939453 0)"/>
       <use xlink:href="#DejaVuSans-61" transform="translate(222.416016 0)"/>
       <use xlink:href="#DejaVuSans-72" transform="translate(283.695312 0)"/>
       <use xlink:href="#DejaVuSans-61" transform="translate(324.808594 0)"/>
       <use xlink:href="#DejaVuSans-74" transform="translate(386.087891 0)"/>
       <use xlink:href="#DejaVuSans-69" transform="translate(425.296875 0)"/>
       <use xlink:href="#DejaVuSans-6f" transform="translate(453.080078 0)"/>
       <use xlink:href="#DejaVuSans-6e" transform="translate(514.261719 0)"/>
      </g>
     </g>
    </g>
   </g>
   <g id="matplotlib.axis_2">
    <g id="ytick_1">
     <g id="line2d_3">
      <defs>
       <path id="ma0d4652262" d="M 0 0 
L -3.5 0 
" style="stroke: #000000; stroke-width: 0.8"/>
      </defs>
      <g>
       <use xlink:href="#ma0d4652262" x="36.403365" y="240.24351" style="stroke: #000000; stroke-width: 0.8"/>
      </g>
     </g>
     <g id="text_3">
      <!-- 0 -->
      <g transform="translate(23.040865 244.042729) scale(0.1 -0.1)">
       <defs>
        <path id="DejaVuSans-30" d="M 2034 4250 
Q 1547 4250 1301 3770 
Q 1056 3291 1056 2328 
Q 1056 1369 1301 889 
Q 1547 409 2034 409 
Q 2525 409 2770 889 
Q 3016 1369 3016 2328 
Q 3016 3291 2770 3770 
Q 2525 4250 2034 4250 
z
M 2034 4750 
Q 2819 4750 3233 4129 
Q 3647 3509 3647 2328 
Q 3647 1150 3233 529 
Q 2819 -91 2034 -91 
Q 1250 -91 836 529 
Q 422 1150 422 2328 
Q 422 3509 836 4129 
Q 1250 4750 2034 4750 
z
" transform="scale(0.015625)"/>
       </defs>
       <use xlink:href="#DejaVuSans-30"/>
      </g>
     </g>
    </g>
    <g id="ytick_2">
     <g id="line2d_4">
      <g>
       <use xlink:href="#ma0d4652262" x="36.403365" y="214.679646" style="stroke: #000000; stroke-width: 0.8"/>
      </g>
     </g>
     <g id="text_4">
      <!-- 2 -->
      <g transform="translate(23.040865 218.478864) scale(0.1 -0.1)">
       <defs>
        <path id="DejaVuSans-32" d="M 1228 531 
L 3431 531 
L 3431 0 
L 469 0 
L 469 531 
Q 828 903 1448 1529 
Q 2069 2156 2228 2338 
Q 2531 2678 2651 2914 
Q 2772 3150 2772 3378 
Q 2772 3750 2511 3984 
Q 2250 4219 1831 4219 
Q 1534 4219 1204 4116 
Q 875 4013 500 3803 
L 500 4441 
Q 881 4594 1212 4672 
Q 1544 4750 1819 4750 
Q 2544 4750 2975 4387 
Q 3406 4025 3406 3419 
Q 3406 3131 3298 2873 
Q 3191 2616 2906 2266 
Q 2828 2175 2409 1742 
Q 1991 1309 1228 531 
z
" transform="scale(0.015625)"/>
       </defs>
       <use xlink:href="#DejaVuSans-32"/>
      </g>
     </g>
    </g>
    <g id="ytick_3">
     <g id="line2d_5">
      <g>
       <use xlink:href="#ma0d4652262" x="36.403365" y="189.115781" style="stroke: #000000; stroke-width: 0.8"/>
      </g>
     </g>
     <g id="text_5">
      <!-- 4 -->
      <g transform="translate(23.040865 192.915) scale(0.1 -0.1)">
       <defs>
        <path id="DejaVuSans-34" d="M 2419 4116 
L 825 1625 
L 2419 1625 
L 2419 4116 
z
M 2253 4666 
L 3047 4666 
L 3047 1625 
L 3713 1625 
L 3713 1100 
L 3047 1100 
L 3047 0 
L 2419 0 
L 2419 1100 
L 313 1100 
L 313 1709 
L 2253 4666 
z
" transform="scale(0.015625)"/>
       </defs>
       <use xlink:href="#DejaVuSans-34"/>
      </g>
     </g>
    </g>
    <g id="ytick_4">
     <g id="line2d_6">
      <g>
       <use xlink:href="#ma0d4652262" x="36.403365" y="163.551917" style="stroke: #000000; stroke-width: 0.8"/>
      </g>
     </g>
     <g id="text_6">
      <!-- 6 -->
      <g transform="translate(23.040865 167.351136) scale(0.1 -0.1)">
       <defs>
        <path id="DejaVuSans-36" d="M 2113 2584 
Q 1688 2584 1439 2293 
Q 1191 2003 1191 1497 
Q 1191 994 1439 701 
Q 1688 409 2113 409 
Q 2538 409 2786 701 
Q 3034 994 3034 1497 
Q 3034 2003 2786 2293 
Q 2538 2584 2113 2584 
z
M 3366 4563 
L 3366 3988 
Q 3128 4100 2886 4159 
Q 2644 4219 2406 4219 
Q 1781 4219 1451 3797 
Q 1122 3375 1075 2522 
Q 1259 2794 1537 2939 
Q 1816 3084 2150 3084 
Q 2853 3084 3261 2657 
Q 3669 2231 3669 1497 
Q 3669 778 3244 343 
Q 2819 -91 2113 -91 
Q 1303 -91 875 529 
Q 447 1150 447 2328 
Q 447 3434 972 4092 
Q 1497 4750 2381 4750 
Q 2619 4750 2861 4703 
Q 3103 4656 3366 4563 
z
" transform="scale(0.015625)"/>
       </defs>
       <use xlink:href="#DejaVuSans-36"/>
      </g>
     </g>
    </g>
    <g id="ytick_5">
     <g id="line2d_7">
      <g>
       <use xlink:href="#ma0d4652262" x="36.403365" y="137.988052" style="stroke: #000000; stroke-width: 0.8"/>
      </g>
     </g>
     <g id="text_7">
      <!-- 8 -->
      <g transform="translate(23.040865 141.787271) scale(0.1 -0.1)">
       <defs>
        <path id="DejaVuSans-38" d="M 2034 2216 
Q 1584 2216 1326 1975 
Q 1069 1734 1069 1313 
Q 1069 891 1326 650 
Q 1584 409 2034 409 
Q 2484 409 2743 651 
Q 3003 894 3003 1313 
Q 3003 1734 2745 1975 
Q 2488 2216 2034 2216 
z
M 1403 2484 
Q 997 2584 770 2862 
Q 544 3141 544 3541 
Q 544 4100 942 4425 
Q 1341 4750 2034 4750 
Q 2731 4750 3128 4425 
Q 3525 4100 3525 3541 
Q 3525 3141 3298 2862 
Q 3072 2584 2669 2484 
Q 3125 2378 3379 2068 
Q 3634 1759 3634 1313 
Q 3634 634 3220 271 
Q 2806 -91 2034 -91 
Q 1263 -91 848 271 
Q 434 634 434 1313 
Q 434 1759 690 2068 
Q 947 2378 1403 2484 
z
M 1172 3481 
Q 1172 3119 1398 2916 
Q 1625 2713 2034 2713 
Q 2441 2713 2670 2916 
Q 2900 3119 2900 3481 
Q 2900 3844 2670 4047 
Q 2441 4250 2034 4250 
Q 1625 4250 1398 4047 
Q 1172 3844 1172 3481 
z
" transform="scale(0.015625)"/>
       </defs>
       <use xlink:href="#DejaVuSans-38"/>
      </g>
     </g>
    </g>
    <g id="ytick_6">
     <g id="line2d_8">
      <g>
       <use xlink:href="#ma0d4652262" x="36.403365" y="112.424188" style="stroke: #000000; stroke-width: 0.8"/>
      </g>
     </g>
     <g id="text_8">
      <!-- 10 -->
      <g transform="translate(16.678365 116.223407) scale(0.1 -0.1)">
       <defs>
        <path id="DejaVuSans-31" d="M 794 531 
L 1825 531 
L 1825 4091 
L 703 3866 
L 703 4441 
L 1819 4666 
L 2450 4666 
L 2450 531 
L 3481 531 
L 3481 0 
L 794 0 
L 794 531 
z
" transform="scale(0.015625)"/>
       </defs>
       <use xlink:href="#DejaVuSans-31"/>
       <use xlink:href="#DejaVuSans-30" transform="translate(63.623047 0)"/>
      </g>
     </g>
    </g>
    <g id="ytick_7">
     <g id="line2d_9">
      <g>
       <use xlink:href="#ma0d4652262" x="36.403365" y="86.860324" style="stroke: #000000; stroke-width: 0.8"/>
      </g>
     </g>
     <g id="text_9">
      <!-- 12 -->
      <g transform="translate(16.678365 90.659542) scale(0.1 -0.1)">
       <use xlink:href="#DejaVuSans-31"/>
       <use xlink:href="#DejaVuSans-32" transform="translate(63.623047 0)"/>
      </g>
     </g>
    </g>
    <g id="ytick_8">
     <g id="line2d_10">
      <g>
       <use xlink:href="#ma0d4652262" x="36.403365" y="61.296459" style="stroke: #000000; stroke-width: 0.8"/>
      </g>
     </g>
     <g id="text_10">
      <!-- 14 -->
      <g transform="translate(16.678365 65.095678) scale(0.1 -0.1)">
       <use xlink:href="#DejaVuSans-31"/>
       <use xlink:href="#DejaVuSans-34" transform="translate(63.623047 0)"/>
      </g>
     </g>
    </g>
    <g id="ytick_9">
     <g id="line2d_11">
      <g>
       <use xlink:href="#ma0d4652262" x="36.403365" y="35.732595" style="stroke: #000000; stroke-width: 0.8"/>
      </g>
     </g>
     <g id="text_11">
      <!-- 16 -->
      <g transform="translate(16.678365 39.531814) scale(0.1 -0.1)">
       <use xlink:href="#DejaVuSans-31"/>
       <use xlink:href="#DejaVuSans-36" transform="translate(63.623047 0)"/>
      </g>
     </g>
    </g>
    <g id="text_12">
     <!-- Roots (15 planned per mode) -->
     <g transform="translate(10.598678 211.243521) rotate(-90) scale(0.1 -0.1)">
      <defs>
       <path id="DejaVuSans-52" d="M 2841 2188 
Q 3044 2119 3236 1894 
Q 3428 1669 3622 1275 
L 4263 0 
L 3584 0 
L 2988 1197 
Q 2756 1666 2539 1819 
Q 2322 1972 1947 1972 
L 1259 1972 
L 1259 0 
L 628 0 
L 628 4666 
L 2053 4666 
Q 2853 4666 3247 4331 
Q 3641 3997 3641 3322 
Q 3641 2881 3436 2590 
Q 3231 2300 2841 2188 
z
M 1259 4147 
L 1259 2491 
L 2053 2491 
Q 2509 2491 2742 2702 
Q 2975 2913 2975 3322 
Q 2975 3731 2742 3939 
Q 2509 4147 2053 4147 
L 1259 4147 
z
" transform="scale(0.015625)"/>
       <path id="DejaVuSans-73" d="M 2834 3397 
L 2834 2853 
Q 2591 2978 2328 3040 
Q 2066 3103 1784 3103 
Q 1356 3103 1142 2972 
Q 928 2841 928 2578 
Q 928 2378 1081 2264 
Q 1234 2150 1697 2047 
L 1894 2003 
Q 2506 1872 2764 1633 
Q 3022 1394 3022 966 
Q 3022 478 2636 193 
Q 2250 -91 1575 -91 
Q 1294 -91 989 -36 
Q 684 19 347 128 
L 347 722 
Q 666 556 975 473 
Q 1284 391 1588 391 
Q 1994 391 2212 530 
Q 2431 669 2431 922 
Q 2431 1156 2273 1281 
Q 2116 1406 1581 1522 
L 1381 1569 
Q 847 1681 609 1914 
Q 372 2147 372 2553 
Q 372 3047 722 3315 
Q 1072 3584 1716 3584 
Q 2034 3584 2315 3537 
Q 2597 3491 2834 3397 
z
" transform="scale(0.015625)"/>
       <path id="DejaVuSans-20" transform="scale(0.015625)"/>
       <path id="DejaVuSans-28" d="M 1984 4856 
Q 1566 4138 1362 3434 
Q 1159 2731 1159 2009 
Q 1159 1288 1364 580 
Q 1569 -128 1984 -844 
L 1484 -844 
Q 1016 -109 783 600 
Q 550 1309 550 2009 
Q 550 2706 781 3412 
Q 1013 4119 1484 4856 
L 1984 4856 
z
" transform="scale(0.015625)"/>
       <path id="DejaVuSans-35" d="M 691 4666 
L 3169 4666 
L 3169 4134 
L 1269 4134 
L 1269 2991 
Q 1406 3038 1543 3061 
Q 1681 3084 1819 3084 
Q 2600 3084 3056 2656 
Q 3513 2228 3513 1497 
Q 3513 744 3044 326 
Q 2575 -91 1722 -91 
Q 1428 -91 1123 -41 
Q 819 9 494 109 
L 494 744 
Q 775 591 1075 516 
Q 1375 441 1709 441 
Q 2250 441 2565 725 
Q 2881 1009 2881 1497 
Q 2881 1984 2565 2268 
Q 2250 2553 1709 2553 
Q 1456 2553 1204 2497 
Q 953 2441 691 2322 
L 691 4666 
z
" transform="scale(0.015625)"/>
       <path id="DejaVuSans-6c" d="M 603 4863 
L 1178 4863 
L 1178 0 
L 603 0 
L 603 4863 
z
" transform="scale(0.015625)"/>
       <path id="DejaVuSans-64" d="M 2906 2969 
L 2906 4863 
L 3481 4863 
L 3481 0 
L 2906 0 
L 2906 525 
Q 2725 213 2448 61 
Q 2172 -91 1784 -91 
Q 1150 -91 751 415 
Q 353 922 353 1747 
Q 353 2572 751 3078 
Q 1150 3584 1784 3584 
Q 2172 3584 2448 3432 
Q 2725 3281 2906 2969 
z
M 947 1747 
Q 947 1113 1208 752 
Q 1469 391 1925 391 
Q 2381 391 2643 752 
Q 2906 1113 2906 1747 
Q 2906 2381 2643 2742 
Q 2381 3103 1925 3103 
Q 1469 3103 1208 2742 
Q 947 2381 947 1747 
z
" transform="scale(0.015625)"/>
       <path id="DejaVuSans-29" d="M 513 4856 
L 1013 4856 
Q 1481 4119 1714 3412 
Q 1947 2706 1947 2009 
Q 1947 1309 1714 600 
Q 1481 -109 1013 -844 
L 513 -844 
Q 928 -128 1133 580 
Q 1338 1288 1338 2009 
Q 1338 2731 1133 3434 
Q 928 4138 513 4856 
z
" transform="scale(0.015625)"/>
      </defs>
      <use xlink:href="#DejaVuSans-52"/>
      <use xlink:href="#DejaVuSans-6f" transform="translate(64.982422 0)"/>
      <use xlink:href="#DejaVuSans-6f" transform="translate(126.164062 0)"/>
      <use xlink:href="#DejaVuSans-74" transform="translate(187.345703 0)"/>
      <use xlink:href="#DejaVuSans-73" transform="translate(226.554688 0)"/>
      <use xlink:href="#DejaVuSans-20" transform="translate(278.654297 0)"/>
      <use xlink:href="#DejaVuSans-28" transform="translate(310.441406 0)"/>
      <use xlink:href="#DejaVuSans-31" transform="translate(349.455078 0)"/>
      <use xlink:href="#DejaVuSans-35" transform="translate(413.078125 0)"/>
      <use xlink:href="#DejaVuSans-20" transform="translate(476.701172 0)"/>
      <use xlink:href="#DejaVuSans-70" transform="translate(508.488281 0)"/>
      <use xlink:href="#DejaVuSans-6c" transform="translate(571.964844 0)"/>
      <use xlink:href="#DejaVuSans-61" transform="translate(599.748047 0)"/>
      <use xlink:href="#DejaVuSans-6e" transform="translate(661.027344 0)"/>
      <use xlink:href="#DejaVuSans-6e" transform="translate(724.40625 0)"/>
      <use xlink:href="#DejaVuSans-65" transform="translate(787.785156 0)"/>
      <use xlink:href="#DejaVuSans-64" transform="translate(849.308594 0)"/>
      <use xlink:href="#DejaVuSans-20" transform="translate(912.785156 0)"/>
      <use xlink:href="#DejaVuSans-70" transform="translate(944.572266 0)"/>
      <use xlink:href="#DejaVuSans-65" transform="translate(1008.048828 0)"/>
      <use xlink:href="#DejaVuSans-72" transform="translate(1069.572266 0)"/>
      <use xlink:href="#DejaVuSans-20" transform="translate(1110.685547 0)"/>
      <use xlink:href="#DejaVuSans-6d" transform="translate(1142.472656 0)"/>
      <use xlink:href="#DejaVuSans-6f" transform="translate(1239.884766 0)"/>
      <use xlink:href="#DejaVuSans-64" transform="translate(1301.066406 0)"/>
      <use xlink:href="#DejaVuSans-65" transform="translate(1364.542969 0)"/>
      <use xlink:href="#DejaVuSans-29" transform="translate(1426.066406 0)"/>
     </g>
    </g>
   </g>
   <g id="patch_5">
    <path d="M 36.403365 240.24351 
L 36.403365 35.732595 
" style="fill: none; stroke: #000000; stroke-width: 0.8; stroke-linejoin: miter; stroke-linecap: square"/>
   </g>
   <g id="patch_6">
    <path d="M 306.931963 240.24351 
L 306.931963 35.732595 
" style="fill: none; stroke: #000000; stroke-width: 0.8; stroke-linejoin: miter; stroke-linecap: square"/>
   </g>
   <g id="patch_7">
    <path d="M 36.403365 240.24351 
L 306.931963 240.24351 
" style="fill: none; stroke: #000000; stroke-width: 0.8; stroke-linejoin: miter; stroke-linecap: square"/>
   </g>
   <g id="patch_8">
    <path d="M 36.403365 35.732595 
L 306.931963 35.732595 
" style="fill: none; stroke: #000000; stroke-width: 0.8; stroke-linejoin: miter; stroke-linecap: square"/>
   </g>
   <g id="text_13">
    <!-- Roots with every discovery rollout losing -->
    <g transform="translate(49.995164 29.732595) scale(0.12 -0.12)">
     <defs>
      <path id="DejaVuSans-77" d="M 269 3500 
L 844 3500 
L 1563 769 
L 2278 3500 
L 2956 3500 
L 3675 769 
L 4391 3500 
L 4966 3500 
L 4050 0 
L 3372 0 
L 2619 2869 
L 1863 0 
L 1184 0 
L 269 3500 
z
" transform="scale(0.015625)"/>
      <path id="DejaVuSans-68" d="M 3513 2113 
L 3513 0 
L 2938 0 
L 2938 2094 
Q 2938 2591 2744 2837 
Q 2550 3084 2163 3084 
Q 1697 3084 1428 2787 
Q 1159 2491 1159 1978 
L 1159 0 
L 581 0 
L 581 4863 
L 1159 4863 
L 1159 2956 
Q 1366 3272 1645 3428 
Q 1925 3584 2291 3584 
Q 2894 3584 3203 3211 
Q 3513 2838 3513 2113 
z
" transform="scale(0.015625)"/>
      <path id="DejaVuSans-76" d="M 191 3500 
L 800 3500 
L 1894 563 
L 2988 3500 
L 3597 3500 
L 2284 0 
L 1503 0 
L 191 3500 
z
" transform="scale(0.015625)"/>
      <path id="DejaVuSans-79" d="M 2059 -325 
Q 1816 -950 1584 -1140 
Q 1353 -1331 966 -1331 
L 506 -1331 
L 506 -850 
L 844 -850 
Q 1081 -850 1212 -737 
Q 1344 -625 1503 -206 
L 1606 56 
L 191 3500 
L 800 3500 
L 1894 763 
L 2988 3500 
L 3597 3500 
L 2059 -325 
z
" transform="scale(0.015625)"/>
      <path id="DejaVuSans-63" d="M 3122 3366 
L 3122 2828 
Q 2878 2963 2633 3030 
Q 2388 3097 2138 3097 
Q 1578 3097 1268 2742 
Q 959 2388 959 1747 
Q 959 1106 1268 751 
Q 1578 397 2138 397 
Q 2388 397 2633 464 
Q 2878 531 3122 666 
L 3122 134 
Q 2881 22 2623 -34 
Q 2366 -91 2075 -91 
Q 1284 -91 818 406 
Q 353 903 353 1747 
Q 353 2603 823 3093 
Q 1294 3584 2113 3584 
Q 2378 3584 2631 3529 
Q 2884 3475 3122 3366 
z
" transform="scale(0.015625)"/>
      <path id="DejaVuSans-75" d="M 544 1381 
L 544 3500 
L 1119 3500 
L 1119 1403 
Q 1119 906 1312 657 
Q 1506 409 1894 409 
Q 2359 409 2629 706 
Q 2900 1003 2900 1516 
L 2900 3500 
L 3475 3500 
L 3475 0 
L 2900 0 
L 2900 538 
Q 2691 219 2414 64 
Q 2138 -91 1772 -91 
Q 1169 -91 856 284 
Q 544 659 544 1381 
z
M 1991 3584 
L 1991 3584 
z
" transform="scale(0.015625)"/>
      <path id="DejaVuSans-67" d="M 2906 1791 
Q 2906 2416 2648 2759 
Q 2391 3103 1925 3103 
Q 1463 3103 1205 2759 
Q 947 2416 947 1791 
Q 947 1169 1205 825 
Q 1463 481 1925 481 
Q 2391 481 2648 825 
Q 2906 1169 2906 1791 
z
M 3481 434 
Q 3481 -459 3084 -895 
Q 2688 -1331 1869 -1331 
Q 1566 -1331 1297 -1286 
Q 1028 -1241 775 -1147 
L 775 -588 
Q 1028 -725 1275 -790 
Q 1522 -856 1778 -856 
Q 2344 -856 2625 -561 
Q 2906 -266 2906 331 
L 2906 616 
Q 2728 306 2450 153 
Q 2172 0 1784 0 
Q 1141 0 747 490 
Q 353 981 353 1791 
Q 353 2603 747 3093 
Q 1141 3584 1784 3584 
Q 2172 3584 2450 3431 
Q 2728 3278 2906 2969 
L 2906 3500 
L 3481 3500 
L 3481 434 
z
" transform="scale(0.015625)"/>
     </defs>
     <use xlink:href="#DejaVuSans-52"/>
     <use xlink:href="#DejaVuSans-6f" transform="translate(64.982422 0)"/>
     <use xlink:href="#DejaVuSans-6f" transform="translate(126.164062 0)"/>
     <use xlink:href="#DejaVuSans-74" transform="translate(187.345703 0)"/>
     <use xlink:href="#DejaVuSans-73" transform="translate(226.554688 0)"/>
     <use xlink:href="#DejaVuSans-20" transform="translate(278.654297 0)"/>
     <use xlink:href="#DejaVuSans-77" transform="translate(310.441406 0)"/>
     <use xlink:href="#DejaVuSans-69" transform="translate(392.228516 0)"/>
     <use xlink:href="#DejaVuSans-74" transform="translate(420.011719 0)"/>
     <use xlink:href="#DejaVuSans-68" transform="translate(459.220703 0)"/>
     <use xlink:href="#DejaVuSans-20" transform="translate(522.599609 0)"/>
     <use xlink:href="#DejaVuSans-65" transform="translate(554.386719 0)"/>
     <use xlink:href="#DejaVuSans-76" transform="translate(615.910156 0)"/>
     <use xlink:href="#DejaVuSans-65" transform="translate(675.089844 0)"/>
     <use xlink:href="#DejaVuSans-72" transform="translate(736.613281 0)"/>
     <use xlink:href="#DejaVuSans-79" transform="translate(777.726562 0)"/>
     <use xlink:href="#DejaVuSans-20" transform="translate(836.90625 0)"/>
     <use xlink:href="#DejaVuSans-64" transform="translate(868.693359 0)"/>
     <use xlink:href="#DejaVuSans-69" transform="translate(932.169922 0)"/>
     <use xlink:href="#DejaVuSans-73" transform="translate(959.953125 0)"/>
     <use xlink:href="#DejaVuSans-63" transform="translate(1012.052734 0)"/>
     <use xlink:href="#DejaVuSans-6f" transform="translate(1067.033203 0)"/>
     <use xlink:href="#DejaVuSans-76" transform="translate(1128.214844 0)"/>
     <use xlink:href="#DejaVuSans-65" transform="translate(1187.394531 0)"/>
     <use xlink:href="#DejaVuSans-72" transform="translate(1248.917969 0)"/>
     <use xlink:href="#DejaVuSans-79" transform="translate(1290.03125 0)"/>
     <use xlink:href="#DejaVuSans-20" transform="translate(1349.210938 0)"/>
     <use xlink:href="#DejaVuSans-72" transform="translate(1380.998047 0)"/>
     <use xlink:href="#DejaVuSans-6f" transform="translate(1419.861328 0)"/>
     <use xlink:href="#DejaVuSans-6c" transform="translate(1481.042969 0)"/>
     <use xlink:href="#DejaVuSans-6c" transform="translate(1508.826172 0)"/>
     <use xlink:href="#DejaVuSans-6f" transform="translate(1536.609375 0)"/>
     <use xlink:href="#DejaVuSans-75" transform="translate(1597.791016 0)"/>
     <use xlink:href="#DejaVuSans-74" transform="translate(1661.169922 0)"/>
     <use xlink:href="#DejaVuSans-20" transform="translate(1700.378906 0)"/>
     <use xlink:href="#DejaVuSans-6c" transform="translate(1732.166016 0)"/>
     <use xlink:href="#DejaVuSans-6f" transform="translate(1759.949219 0)"/>
     <use xlink:href="#DejaVuSans-73" transform="translate(1821.130859 0)"/>
     <use xlink:href="#DejaVuSans-69" transform="translate(1873.230469 0)"/>
     <use xlink:href="#DejaVuSans-6e" transform="translate(1901.013672 0)"/>
     <use xlink:href="#DejaVuSans-67" transform="translate(1964.392578 0)"/>
    </g>
   </g>
  </g>
  <g id="axes_2">
   <g id="patch_9">
    <path d="M 349.753213 240.24351 
L 620.281811 240.24351 
L 620.281811 35.732595 
L 349.753213 35.732595 
z
" style="fill: #ffffff"/>
   </g>
   <g id="PathCollection_1">
    <defs>
     <path id="mddd040bd6a" d="M 0 3 
C 0.795609 3 1.55874 2.683901 2.12132 2.12132 
C 2.683901 1.55874 3 0.795609 3 0 
C 3 -0.795609 2.683901 -1.55874 2.12132 -2.12132 
C 1.55874 -2.683901 0.795609 -3 0 -3 
C -0.795609 -3 -1.55874 -2.683901 -2.12132 -2.12132 
C -2.683901 -1.55874 -3 -0.795609 -3 0 
C -3 0.795609 -2.683901 1.55874 -2.12132 2.12132 
C -1.55874 2.683901 -0.795609 3 0 3 
z
" style="stroke: #4477aa; stroke-opacity: 0.65"/>
    </defs>
    <g clip-path="url(#pcdcdceb81c)">
     <use xlink:href="#mddd040bd6a" x="362.049967" y="230.947559" style="fill: #4477aa; fill-opacity: 0.65; stroke: #4477aa; stroke-opacity: 0.65"/>
     <use xlink:href="#mddd040bd6a" x="362.049967" y="230.947559" style="fill: #4477aa; fill-opacity: 0.65; stroke: #4477aa; stroke-opacity: 0.65"/>
     <use xlink:href="#mddd040bd6a" x="362.049967" y="230.947559" style="fill: #4477aa; fill-opacity: 0.65; stroke: #4477aa; stroke-opacity: 0.65"/>
     <use xlink:href="#mddd040bd6a" x="362.049967" y="230.947559" style="fill: #4477aa; fill-opacity: 0.65; stroke: #4477aa; stroke-opacity: 0.65"/>
     <use xlink:href="#mddd040bd6a" x="362.049967" y="230.947559" style="fill: #4477aa; fill-opacity: 0.65; stroke: #4477aa; stroke-opacity: 0.65"/>
     <use xlink:href="#mddd040bd6a" x="362.049967" y="230.947559" style="fill: #4477aa; fill-opacity: 0.65; stroke: #4477aa; stroke-opacity: 0.65"/>
     <use xlink:href="#mddd040bd6a" x="601.099903" y="138.674017" style="fill: #4477aa; fill-opacity: 0.65; stroke: #4477aa; stroke-opacity: 0.65"/>
     <use xlink:href="#mddd040bd6a" x="362.049967" y="230.947559" style="fill: #4477aa; fill-opacity: 0.65; stroke: #4477aa; stroke-opacity: 0.65"/>
     <use xlink:href="#mddd040bd6a" x="366.80764" y="136.638755" style="fill: #4477aa; fill-opacity: 0.65; stroke: #4477aa; stroke-opacity: 0.65"/>
     <use xlink:href="#mddd040bd6a" x="362.049967" y="230.947559" style="fill: #4477aa; fill-opacity: 0.65; stroke: #4477aa; stroke-opacity: 0.65"/>
     <use xlink:href="#mddd040bd6a" x="362.049967" y="230.947559" style="fill: #4477aa; fill-opacity: 0.65; stroke: #4477aa; stroke-opacity: 0.65"/>
     <use xlink:href="#mddd040bd6a" x="362.049967" y="230.947559" style="fill: #4477aa; fill-opacity: 0.65; stroke: #4477aa; stroke-opacity: 0.65"/>
     <use xlink:href="#mddd040bd6a" x="362.049967" y="230.947559" style="fill: #4477aa; fill-opacity: 0.65; stroke: #4477aa; stroke-opacity: 0.65"/>
     <use xlink:href="#mddd040bd6a" x="601.763484" y="230.947559" style="fill: #4477aa; fill-opacity: 0.65; stroke: #4477aa; stroke-opacity: 0.65"/>
     <use xlink:href="#mddd040bd6a" x="362.049967" y="230.947559" style="fill: #4477aa; fill-opacity: 0.65; stroke: #4477aa; stroke-opacity: 0.65"/>
    </g>
   </g>
   <g id="PathCollection_2">
    <defs>
     <path id="m142d8dcdc3" d="M 0 3 
C 0.795609 3 1.55874 2.683901 2.12132 2.12132 
C 2.683901 1.55874 3 0.795609 3 0 
C 3 -0.795609 2.683901 -1.55874 2.12132 -2.12132 
C 1.55874 -2.683901 0.795609 -3 0 -3 
C -0.795609 -3 -1.55874 -2.683901 -2.12132 -2.12132 
C -2.683901 -1.55874 -3 -0.795609 -3 0 
C -3 0.795609 -2.683901 1.55874 -2.12132 2.12132 
C -1.55874 2.683901 -0.795609 3 0 3 
z
" style="stroke: #ee9944; stroke-opacity: 0.65"/>
    </defs>
    <g clip-path="url(#pcdcdceb81c)">
     <use xlink:href="#m142d8dcdc3" x="368.637514" y="230.663497" style="fill: #ee9944; fill-opacity: 0.65; stroke: #ee9944; stroke-opacity: 0.65"/>
     <use xlink:href="#m142d8dcdc3" x="362.049967" y="230.947559" style="fill: #ee9944; fill-opacity: 0.65; stroke: #ee9944; stroke-opacity: 0.65"/>
     <use xlink:href="#m142d8dcdc3" x="362.049967" y="230.947559" style="fill: #ee9944; fill-opacity: 0.65; stroke: #ee9944; stroke-opacity: 0.65"/>
     <use xlink:href="#m142d8dcdc3" x="362.049967" y="230.947559" style="fill: #ee9944; fill-opacity: 0.65; stroke: #ee9944; stroke-opacity: 0.65"/>
     <use xlink:href="#m142d8dcdc3" x="362.049967" y="230.947559" style="fill: #ee9944; fill-opacity: 0.65; stroke: #ee9944; stroke-opacity: 0.65"/>
     <use xlink:href="#m142d8dcdc3" x="598.469711" y="45.45464" style="fill: #ee9944; fill-opacity: 0.65; stroke: #ee9944; stroke-opacity: 0.65"/>
     <use xlink:href="#m142d8dcdc3" x="362.049967" y="230.947559" style="fill: #ee9944; fill-opacity: 0.65; stroke: #ee9944; stroke-opacity: 0.65"/>
     <use xlink:href="#m142d8dcdc3" x="362.049967" y="230.947559" style="fill: #ee9944; fill-opacity: 0.65; stroke: #ee9944; stroke-opacity: 0.65"/>
     <use xlink:href="#m142d8dcdc3" x="607.985056" y="45.028546" style="fill: #ee9944; fill-opacity: 0.65; stroke: #ee9944; stroke-opacity: 0.65"/>
     <use xlink:href="#m142d8dcdc3" x="362.049967" y="230.947559" style="fill: #ee9944; fill-opacity: 0.65; stroke: #ee9944; stroke-opacity: 0.65"/>
     <use xlink:href="#m142d8dcdc3" x="362.049967" y="230.947559" style="fill: #ee9944; fill-opacity: 0.65; stroke: #ee9944; stroke-opacity: 0.65"/>
     <use xlink:href="#m142d8dcdc3" x="362.049967" y="230.947559" style="fill: #ee9944; fill-opacity: 0.65; stroke: #ee9944; stroke-opacity: 0.65"/>
     <use xlink:href="#m142d8dcdc3" x="362.049967" y="230.947559" style="fill: #ee9944; fill-opacity: 0.65; stroke: #ee9944; stroke-opacity: 0.65"/>
     <use xlink:href="#m142d8dcdc3" x="362.049967" y="230.947559" style="fill: #ee9944; fill-opacity: 0.65; stroke: #ee9944; stroke-opacity: 0.65"/>
     <use xlink:href="#m142d8dcdc3" x="362.049967" y="230.947559" style="fill: #ee9944; fill-opacity: 0.65; stroke: #ee9944; stroke-opacity: 0.65"/>
    </g>
   </g>
   <g id="matplotlib.axis_3">
    <g id="xtick_3">
     <g id="line2d_12">
      <g>
       <use xlink:href="#m338134fa33" x="362.049967" y="240.24351" style="stroke: #000000; stroke-width: 0.8"/>
      </g>
     </g>
     <g id="text_14">
      <!-- 0.0 -->
      <g transform="translate(354.098405 254.841947) scale(0.1 -0.1)">
       <defs>
        <path id="DejaVuSans-2e" d="M 684 794 
L 1344 794 
L 1344 0 
L 684 0 
L 684 794 
z
" transform="scale(0.015625)"/>
       </defs>
       <use xlink:href="#DejaVuSans-30"/>
       <use xlink:href="#DejaVuSans-2e" transform="translate(63.623047 0)"/>
       <use xlink:href="#DejaVuSans-30" transform="translate(95.410156 0)"/>
      </g>
     </g>
    </g>
    <g id="xtick_4">
     <g id="line2d_13">
      <g>
       <use xlink:href="#m338134fa33" x="408.894746" y="240.24351" style="stroke: #000000; stroke-width: 0.8"/>
      </g>
     </g>
     <g id="text_15">
      <!-- 0.1 -->
      <g transform="translate(400.943184 254.841947) scale(0.1 -0.1)">
       <use xlink:href="#DejaVuSans-30"/>
       <use xlink:href="#DejaVuSans-2e" transform="translate(63.623047 0)"/>
       <use xlink:href="#DejaVuSans-31" transform="translate(95.410156 0)"/>
      </g>
     </g>
    </g>
    <g id="xtick_5">
     <g id="line2d_14">
      <g>
       <use xlink:href="#m338134fa33" x="455.739525" y="240.24351" style="stroke: #000000; stroke-width: 0.8"/>
      </g>
     </g>
     <g id="text_16">
      <!-- 0.2 -->
      <g transform="translate(447.787963 254.841947) scale(0.1 -0.1)">
       <use xlink:href="#DejaVuSans-30"/>
       <use xlink:href="#DejaVuSans-2e" transform="translate(63.623047 0)"/>
       <use xlink:href="#DejaVuSans-32" transform="translate(95.410156 0)"/>
      </g>
     </g>
    </g>
    <g id="xtick_6">
     <g id="line2d_15">
      <g>
       <use xlink:href="#m338134fa33" x="502.584304" y="240.24351" style="stroke: #000000; stroke-width: 0.8"/>
      </g>
     </g>
     <g id="text_17">
      <!-- 0.3 -->
      <g transform="translate(494.632741 254.841947) scale(0.1 -0.1)">
       <defs>
        <path id="DejaVuSans-33" d="M 2597 2516 
Q 3050 2419 3304 2112 
Q 3559 1806 3559 1356 
Q 3559 666 3084 287 
Q 2609 -91 1734 -91 
Q 1441 -91 1130 -33 
Q 819 25 488 141 
L 488 750 
Q 750 597 1062 519 
Q 1375 441 1716 441 
Q 2309 441 2620 675 
Q 2931 909 2931 1356 
Q 2931 1769 2642 2001 
Q 2353 2234 1838 2234 
L 1294 2234 
L 1294 2753 
L 1863 2753 
Q 2328 2753 2575 2939 
Q 2822 3125 2822 3475 
Q 2822 3834 2567 4026 
Q 2313 4219 1838 4219 
Q 1578 4219 1281 4162 
Q 984 4106 628 3988 
L 628 4550 
Q 988 4650 1302 4700 
Q 1616 4750 1894 4750 
Q 2613 4750 3031 4423 
Q 3450 4097 3450 3541 
Q 3450 3153 3228 2886 
Q 3006 2619 2597 2516 
z
" transform="scale(0.015625)"/>
       </defs>
       <use xlink:href="#DejaVuSans-30"/>
       <use xlink:href="#DejaVuSans-2e" transform="translate(63.623047 0)"/>
       <use xlink:href="#DejaVuSans-33" transform="translate(95.410156 0)"/>
      </g>
     </g>
    </g>
    <g id="xtick_7">
     <g id="line2d_16">
      <g>
       <use xlink:href="#m338134fa33" x="549.429083" y="240.24351" style="stroke: #000000; stroke-width: 0.8"/>
      </g>
     </g>
     <g id="text_18">
      <!-- 0.4 -->
      <g transform="translate(541.47752 254.841947) scale(0.1 -0.1)">
       <use xlink:href="#DejaVuSans-30"/>
       <use xlink:href="#DejaVuSans-2e" transform="translate(63.623047 0)"/>
       <use xlink:href="#DejaVuSans-34" transform="translate(95.410156 0)"/>
      </g>
     </g>
    </g>
    <g id="xtick_8">
     <g id="line2d_17">
      <g>
       <use xlink:href="#m338134fa33" x="596.273862" y="240.24351" style="stroke: #000000; stroke-width: 0.8"/>
      </g>
     </g>
     <g id="text_19">
      <!-- 0.5 -->
      <g transform="translate(588.322299 254.841947) scale(0.1 -0.1)">
       <use xlink:href="#DejaVuSans-30"/>
       <use xlink:href="#DejaVuSans-2e" transform="translate(63.623047 0)"/>
       <use xlink:href="#DejaVuSans-35" transform="translate(95.410156 0)"/>
      </g>
     </g>
    </g>
    <g id="text_20">
     <!-- Discovery mean gain -->
     <g transform="translate(432.160481 268.520072) scale(0.1 -0.1)">
      <defs>
       <path id="DejaVuSans-44" d="M 1259 4147 
L 1259 519 
L 2022 519 
Q 2988 519 3436 956 
Q 3884 1394 3884 2338 
Q 3884 3275 3436 3711 
Q 2988 4147 2022 4147 
L 1259 4147 
z
M 628 4666 
L 1925 4666 
Q 3281 4666 3915 4102 
Q 4550 3538 4550 2338 
Q 4550 1131 3912 565 
Q 3275 0 1925 0 
L 628 0 
L 628 4666 
z
" transform="scale(0.015625)"/>
      </defs>
      <use xlink:href="#DejaVuSans-44"/>
      <use xlink:href="#DejaVuSans-69" transform="translate(77.001953 0)"/>
      <use xlink:href="#DejaVuSans-73" transform="translate(104.785156 0)"/>
      <use xlink:href="#DejaVuSans-63" transform="translate(156.884766 0)"/>
      <use xlink:href="#DejaVuSans-6f" transform="translate(211.865234 0)"/>
      <use xlink:href="#DejaVuSans-76" transform="translate(273.046875 0)"/>
      <use xlink:href="#DejaVuSans-65" transform="translate(332.226562 0)"/>
      <use xlink:href="#DejaVuSans-72" transform="translate(393.75 0)"/>
      <use xlink:href="#DejaVuSans-79" transform="translate(434.863281 0)"/>
      <use xlink:href="#DejaVuSans-20" transform="translate(494.042969 0)"/>
      <use xlink:href="#DejaVuSans-6d" transform="translate(525.830078 0)"/>
      <use xlink:href="#DejaVuSans-65" transform="translate(623.242188 0)"/>
      <use xlink:href="#DejaVuSans-61" transform="translate(684.765625 0)"/>
      <use xlink:href="#DejaVuSans-6e" transform="translate(746.044922 0)"/>
      <use xlink:href="#DejaVuSans-20" transform="translate(809.423828 0)"/>
      <use xlink:href="#DejaVuSans-67" transform="translate(841.210938 0)"/>
      <use xlink:href="#DejaVuSans-61" transform="translate(904.6875 0)"/>
      <use xlink:href="#DejaVuSans-69" transform="translate(965.966797 0)"/>
      <use xlink:href="#DejaVuSans-6e" transform="translate(993.75 0)"/>
     </g>
    </g>
   </g>
   <g id="matplotlib.axis_4">
    <g id="ytick_10">
     <g id="line2d_18">
      <g>
       <use xlink:href="#ma0d4652262" x="349.753213" y="230.947559" style="stroke: #000000; stroke-width: 0.8"/>
      </g>
     </g>
     <g id="text_21">
      <!-- 0.0 -->
      <g transform="translate(326.850088 234.746778) scale(0.1 -0.1)">
       <use xlink:href="#DejaVuSans-30"/>
       <use xlink:href="#DejaVuSans-2e" transform="translate(63.623047 0)"/>
       <use xlink:href="#DejaVuSans-30" transform="translate(95.410156 0)"/>
      </g>
     </g>
    </g>
    <g id="ytick_11">
     <g id="line2d_19">
      <g>
       <use xlink:href="#ma0d4652262" x="349.753213" y="203.677544" style="stroke: #000000; stroke-width: 0.8"/>
      </g>
     </g>
     <g id="text_22">
      <!-- 0.1 -->
      <g transform="translate(326.850088 207.476762) scale(0.1 -0.1)">
       <use xlink:href="#DejaVuSans-30"/>
       <use xlink:href="#DejaVuSans-2e" transform="translate(63.623047 0)"/>
       <use xlink:href="#DejaVuSans-31" transform="translate(95.410156 0)"/>
      </g>
     </g>
    </g>
    <g id="ytick_12">
     <g id="line2d_20">
      <g>
       <use xlink:href="#ma0d4652262" x="349.753213" y="176.407528" style="stroke: #000000; stroke-width: 0.8"/>
      </g>
     </g>
     <g id="text_23">
      <!-- 0.2 -->
      <g transform="translate(326.850088 180.206747) scale(0.1 -0.1)">
       <use xlink:href="#DejaVuSans-30"/>
       <use xlink:href="#DejaVuSans-2e" transform="translate(63.623047 0)"/>
       <use xlink:href="#DejaVuSans-32" transform="translate(95.410156 0)"/>
      </g>
     </g>
    </g>
    <g id="ytick_13">
     <g id="line2d_21">
      <g>
       <use xlink:href="#ma0d4652262" x="349.753213" y="149.137512" style="stroke: #000000; stroke-width: 0.8"/>
      </g>
     </g>
     <g id="text_24">
      <!-- 0.3 -->
      <g transform="translate(326.850088 152.936731) scale(0.1 -0.1)">
       <use xlink:href="#DejaVuSans-30"/>
       <use xlink:href="#DejaVuSans-2e" transform="translate(63.623047 0)"/>
       <use xlink:href="#DejaVuSans-33" transform="translate(95.410156 0)"/>
      </g>
     </g>
    </g>
    <g id="ytick_14">
     <g id="line2d_22">
      <g>
       <use xlink:href="#ma0d4652262" x="349.753213" y="121.867496" style="stroke: #000000; stroke-width: 0.8"/>
      </g>
     </g>
     <g id="text_25">
      <!-- 0.4 -->
      <g transform="translate(326.850088 125.666715) scale(0.1 -0.1)">
       <use xlink:href="#DejaVuSans-30"/>
       <use xlink:href="#DejaVuSans-2e" transform="translate(63.623047 0)"/>
       <use xlink:href="#DejaVuSans-34" transform="translate(95.410156 0)"/>
      </g>
     </g>
    </g>
    <g id="ytick_15">
     <g id="line2d_23">
      <g>
       <use xlink:href="#ma0d4652262" x="349.753213" y="94.597481" style="stroke: #000000; stroke-width: 0.8"/>
      </g>
     </g>
     <g id="text_26">
      <!-- 0.5 -->
      <g transform="translate(326.850088 98.396699) scale(0.1 -0.1)">
       <use xlink:href="#DejaVuSans-30"/>
       <use xlink:href="#DejaVuSans-2e" transform="translate(63.623047 0)"/>
       <use xlink:href="#DejaVuSans-35" transform="translate(95.410156 0)"/>
      </g>
     </g>
    </g>
    <g id="ytick_16">
     <g id="line2d_24">
      <g>
       <use xlink:href="#ma0d4652262" x="349.753213" y="67.327465" style="stroke: #000000; stroke-width: 0.8"/>
      </g>
     </g>
     <g id="text_27">
      <!-- 0.6 -->
      <g transform="translate(326.850088 71.126684) scale(0.1 -0.1)">
       <use xlink:href="#DejaVuSans-30"/>
       <use xlink:href="#DejaVuSans-2e" transform="translate(63.623047 0)"/>
       <use xlink:href="#DejaVuSans-36" transform="translate(95.410156 0)"/>
      </g>
     </g>
    </g>
    <g id="ytick_17">
     <g id="line2d_25">
      <g>
       <use xlink:href="#ma0d4652262" x="349.753213" y="40.057449" style="stroke: #000000; stroke-width: 0.8"/>
      </g>
     </g>
     <g id="text_28">
      <!-- 0.7 -->
      <g transform="translate(326.850088 43.856668) scale(0.1 -0.1)">
       <defs>
        <path id="DejaVuSans-37" d="M 525 4666 
L 3525 4666 
L 3525 4397 
L 1831 0 
L 1172 0 
L 2766 4134 
L 525 4134 
L 525 4666 
z
" transform="scale(0.015625)"/>
       </defs>
       <use xlink:href="#DejaVuSans-30"/>
       <use xlink:href="#DejaVuSans-2e" transform="translate(63.623047 0)"/>
       <use xlink:href="#DejaVuSans-37" transform="translate(95.410156 0)"/>
      </g>
     </g>
    </g>
    <g id="text_29">
     <!-- Held-out stream mean gain -->
     <g transform="translate(320.7704 206.735709) rotate(-90) scale(0.1 -0.1)">
      <defs>
       <path id="DejaVuSans-48" d="M 628 4666 
L 1259 4666 
L 1259 2753 
L 3553 2753 
L 3553 4666 
L 4184 4666 
L 4184 0 
L 3553 0 
L 3553 2222 
L 1259 2222 
L 1259 0 
L 628 0 
L 628 4666 
z
" transform="scale(0.015625)"/>
       <path id="DejaVuSans-2d" d="M 313 2009 
L 1997 2009 
L 1997 1497 
L 313 1497 
L 313 2009 
z
" transform="scale(0.015625)"/>
      </defs>
      <use xlink:href="#DejaVuSans-48"/>
      <use xlink:href="#DejaVuSans-65" transform="translate(75.195312 0)"/>
      <use xlink:href="#DejaVuSans-6c" transform="translate(136.71875 0)"/>
      <use xlink:href="#DejaVuSans-64" transform="translate(164.501953 0)"/>
      <use xlink:href="#DejaVuSans-2d" transform="translate(227.978516 0)"/>
      <use xlink:href="#DejaVuSans-6f" transform="translate(265.9375 0)"/>
      <use xlink:href="#DejaVuSans-75" transform="translate(327.119141 0)"/>
      <use xlink:href="#DejaVuSans-74" transform="translate(390.498047 0)"/>
      <use xlink:href="#DejaVuSans-20" transform="translate(429.707031 0)"/>
      <use xlink:href="#DejaVuSans-73" transform="translate(461.494141 0)"/>
      <use xlink:href="#DejaVuSans-74" transform="translate(513.59375 0)"/>
      <use xlink:href="#DejaVuSans-72" transform="translate(552.802734 0)"/>
      <use xlink:href="#DejaVuSans-65" transform="translate(591.666016 0)"/>
      <use xlink:href="#DejaVuSans-61" transform="translate(653.189453 0)"/>
      <use xlink:href="#DejaVuSans-6d" transform="translate(714.46875 0)"/>
      <use xlink:href="#DejaVuSans-20" transform="translate(811.880859 0)"/>
      <use xlink:href="#DejaVuSans-6d" transform="translate(843.667969 0)"/>
      <use xlink:href="#DejaVuSans-65" transform="translate(941.080078 0)"/>
      <use xlink:href="#DejaVuSans-61" transform="translate(1002.603516 0)"/>
      <use xlink:href="#DejaVuSans-6e" transform="translate(1063.882812 0)"/>
      <use xlink:href="#DejaVuSans-20" transform="translate(1127.261719 0)"/>
      <use xlink:href="#DejaVuSans-67" transform="translate(1159.048828 0)"/>
      <use xlink:href="#DejaVuSans-61" transform="translate(1222.525391 0)"/>
      <use xlink:href="#DejaVuSans-69" transform="translate(1283.804688 0)"/>
      <use xlink:href="#DejaVuSans-6e" transform="translate(1311.587891 0)"/>
     </g>
    </g>
   </g>
   <g id="line2d_26">
    <path d="M 349.753213 230.947559 
L 620.281811 230.947559 
" clip-path="url(#pcdcdceb81c)" style="fill: none; stroke: #808080; stroke-width: 0.7; stroke-linecap: square"/>
   </g>
   <g id="patch_10">
    <path d="M 349.753213 240.24351 
L 349.753213 35.732595 
" style="fill: none; stroke: #000000; stroke-width: 0.8; stroke-linejoin: miter; stroke-linecap: square"/>
   </g>
   <g id="patch_11">
    <path d="M 620.281811 240.24351 
L 620.281811 35.732595 
" style="fill: none; stroke: #000000; stroke-width: 0.8; stroke-linejoin: miter; stroke-linecap: square"/>
   </g>
   <g id="patch_12">
    <path d="M 349.753213 240.24351 
L 620.281811 240.24351 
" style="fill: none; stroke: #000000; stroke-width: 0.8; stroke-linejoin: miter; stroke-linecap: square"/>
   </g>
   <g id="patch_13">
    <path d="M 349.753213 35.732595 
L 620.281811 35.732595 
" style="fill: none; stroke: #000000; stroke-width: 0.8; stroke-linejoin: miter; stroke-linecap: square"/>
   </g>
   <g id="text_30">
    <!-- Independent validation (30/30 complete) -->
    <g transform="translate(361.724074 29.732595) scale(0.12 -0.12)">
     <defs>
      <path id="DejaVuSans-49" d="M 628 4666 
L 1259 4666 
L 1259 0 
L 628 0 
L 628 4666 
z
" transform="scale(0.015625)"/>
      <path id="DejaVuSans-2f" d="M 1625 4666 
L 2156 4666 
L 531 -594 
L 0 -594 
L 1625 4666 
z
" transform="scale(0.015625)"/>
     </defs>
     <use xlink:href="#DejaVuSans-49"/>
     <use xlink:href="#DejaVuSans-6e" transform="translate(29.492188 0)"/>
     <use xlink:href="#DejaVuSans-64" transform="translate(92.871094 0)"/>
     <use xlink:href="#DejaVuSans-65" transform="translate(156.347656 0)"/>
     <use xlink:href="#DejaVuSans-70" transform="translate(217.871094 0)"/>
     <use xlink:href="#DejaVuSans-65" transform="translate(281.347656 0)"/>
     <use xlink:href="#DejaVuSans-6e" transform="translate(342.871094 0)"/>
     <use xlink:href="#DejaVuSans-64" transform="translate(406.25 0)"/>
     <use xlink:href="#DejaVuSans-65" transform="translate(469.726562 0)"/>
     <use xlink:href="#DejaVuSans-6e" transform="translate(531.25 0)"/>
     <use xlink:href="#DejaVuSans-74" transform="translate(594.628906 0)"/>
     <use xlink:href="#DejaVuSans-20" transform="translate(633.837891 0)"/>
     <use xlink:href="#DejaVuSans-76" transform="translate(665.625 0)"/>
     <use xlink:href="#DejaVuSans-61" transform="translate(724.804688 0)"/>
     <use xlink:href="#DejaVuSans-6c" transform="translate(786.083984 0)"/>
     <use xlink:href="#DejaVuSans-69" transform="translate(813.867188 0)"/>
     <use xlink:href="#DejaVuSans-64" transform="translate(841.650391 0)"/>
     <use xlink:href="#DejaVuSans-61" transform="translate(905.126953 0)"/>
     <use xlink:href="#DejaVuSans-74" transform="translate(966.40625 0)"/>
     <use xlink:href="#DejaVuSans-69" transform="translate(1005.615234 0)"/>
     <use xlink:href="#DejaVuSans-6f" transform="translate(1033.398438 0)"/>
     <use xlink:href="#DejaVuSans-6e" transform="translate(1094.580078 0)"/>
     <use xlink:href="#DejaVuSans-20" transform="translate(1157.958984 0)"/>
     <use xlink:href="#DejaVuSans-28" transform="translate(1189.746094 0)"/>
     <use xlink:href="#DejaVuSans-33" transform="translate(1228.759766 0)"/>
     <use xlink:href="#DejaVuSans-30" transform="translate(1292.382812 0)"/>
     <use xlink:href="#DejaVuSans-2f" transform="translate(1356.005859 0)"/>
     <use xlink:href="#DejaVuSans-33" transform="translate(1389.697266 0)"/>
     <use xlink:href="#DejaVuSans-30" transform="translate(1453.320312 0)"/>
     <use xlink:href="#DejaVuSans-20" transform="translate(1516.943359 0)"/>
     <use xlink:href="#DejaVuSans-63" transform="translate(1548.730469 0)"/>
     <use xlink:href="#DejaVuSans-6f" transform="translate(1603.710938 0)"/>
     <use xlink:href="#DejaVuSans-6d" transform="translate(1664.892578 0)"/>
     <use xlink:href="#DejaVuSans-70" transform="translate(1762.304688 0)"/>
     <use xlink:href="#DejaVuSans-6c" transform="translate(1825.78125 0)"/>
     <use xlink:href="#DejaVuSans-65" transform="translate(1853.564453 0)"/>
     <use xlink:href="#DejaVuSans-74" transform="translate(1915.087891 0)"/>
     <use xlink:href="#DejaVuSans-65" transform="translate(1954.296875 0)"/>
     <use xlink:href="#DejaVuSans-29" transform="translate(2015.820312 0)"/>
    </g>
   </g>
   <g id="legend_1">
    <g id="patch_14">
     <path d="M 356.753213 73.088845 
L 427.656338 73.088845 
Q 429.656338 73.088845 429.656338 71.088845 
L 429.656338 42.732595 
Q 429.656338 40.732595 427.656338 40.732595 
L 356.753213 40.732595 
Q 354.753213 40.732595 354.753213 42.732595 
L 354.753213 71.088845 
Q 354.753213 73.088845 356.753213 73.088845 
z
" style="fill: #ffffff; opacity: 0.8; stroke: #cccccc; stroke-linejoin: miter"/>
    </g>
    <g id="PathCollection_3">
     <g>
      <use xlink:href="#mddd040bd6a" x="368.753213" y="49.706032" style="fill: #4477aa; fill-opacity: 0.65; stroke: #4477aa; stroke-opacity: 0.65"/>
     </g>
    </g>
    <g id="text_31">
     <!-- combat -->
     <g transform="translate(386.753213 52.331032) scale(0.1 -0.1)">
      <use xlink:href="#DejaVuSans-63"/>
      <use xlink:href="#DejaVuSans-6f" transform="translate(54.980469 0)"/>
      <use xlink:href="#DejaVuSans-6d" transform="translate(116.162109 0)"/>
      <use xlink:href="#DejaVuSans-62" transform="translate(213.574219 0)"/>
      <use xlink:href="#DejaVuSans-61" transform="translate(277.050781 0)"/>
      <use xlink:href="#DejaVuSans-74" transform="translate(338.330078 0)"/>
     </g>
    </g>
    <g id="PathCollection_4">
     <g>
      <use xlink:href="#m142d8dcdc3" x="368.753213" y="64.384157" style="fill: #ee9944; fill-opacity: 0.65; stroke: #ee9944; stroke-opacity: 0.65"/>
     </g>
    </g>
    <g id="text_32">
     <!-- prepare -->
     <g transform="translate(386.753213 67.009157) scale(0.1 -0.1)">
      <use xlink:href="#DejaVuSans-70"/>
      <use xlink:href="#DejaVuSans-72" transform="translate(63.476562 0)"/>
      <use xlink:href="#DejaVuSans-65" transform="translate(102.339844 0)"/>
      <use xlink:href="#DejaVuSans-70" transform="translate(163.863281 0)"/>
      <use xlink:href="#DejaVuSans-61" transform="translate(227.339844 0)"/>
      <use xlink:href="#DejaVuSans-72" transform="translate(288.619141 0)"/>
      <use xlink:href="#DejaVuSans-65" transform="translate(327.482422 0)"/>
     </g>
    </g>
   </g>
  </g>
  <g id="axes_3">
   <g id="patch_15">
    <path d="M 659.924936 240.24351 
L 930.453534 240.24351 
L 930.453534 35.732595 
L 659.924936 35.732595 
z
" style="fill: #ffffff"/>
   </g>
   <g id="PathCollection_5">
    <defs>
     <path id="m7d926df953" d="M 0 2.12132 
C 0.562581 2.12132 1.102195 1.897805 1.5 1.5 
C 1.897805 1.102195 2.12132 0.562581 2.12132 0 
C 2.12132 -0.562581 1.897805 -1.102195 1.5 -1.5 
C 1.102195 -1.897805 0.562581 -2.12132 0 -2.12132 
C -0.562581 -2.12132 -1.102195 -1.897805 -1.5 -1.5 
C -1.897805 -1.102195 -2.12132 -0.562581 -2.12132 0 
C -2.12132 0.562581 -1.897805 1.102195 -1.5 1.5 
C -1.102195 1.897805 -0.562581 2.12132 0 2.12132 
z
" style="stroke: #4477aa"/>
    </defs>
    <g clip-path="url(#p9d7d11de77)">
     <use xlink:href="#m7d926df953" x="672.22169" y="172.346084" style="fill: #4477aa; stroke: #4477aa"/>
     <use xlink:href="#m7d926df953" x="680.702211" y="99.533985" style="fill: #4477aa; stroke: #4477aa"/>
     <use xlink:href="#m7d926df953" x="689.182731" y="177.42929" style="fill: #4477aa; stroke: #4477aa"/>
     <use xlink:href="#m7d926df953" x="697.663251" y="110.504056" style="fill: #4477aa; stroke: #4477aa"/>
     <use xlink:href="#m7d926df953" x="706.143772" y="186.549694" style="fill: #4477aa; stroke: #4477aa"/>
     <use xlink:href="#m7d926df953" x="714.624292" y="230.947559" style="fill: #4477aa; stroke: #4477aa"/>
     <use xlink:href="#m7d926df953" x="723.104812" y="192.058355" style="fill: #4477aa; stroke: #4477aa"/>
     <use xlink:href="#m7d926df953" x="731.585332" y="159.696367" style="fill: #4477aa; stroke: #4477aa"/>
     <use xlink:href="#m7d926df953" x="740.065853" y="178.205429" style="fill: #4477aa; stroke: #4477aa"/>
     <use xlink:href="#m7d926df953" x="748.546373" y="93.222903" style="fill: #4477aa; stroke: #4477aa"/>
     <use xlink:href="#m7d926df953" x="757.026893" y="167.344421" style="fill: #4477aa; stroke: #4477aa"/>
     <use xlink:href="#m7d926df953" x="765.507414" y="129.129226" style="fill: #4477aa; stroke: #4477aa"/>
     <use xlink:href="#m7d926df953" x="773.987934" y="168.120152" style="fill: #4477aa; stroke: #4477aa"/>
     <use xlink:href="#m7d926df953" x="782.468454" y="108.548241" style="fill: #4477aa; stroke: #4477aa"/>
     <use xlink:href="#m7d926df953" x="790.948975" y="174.860268" style="fill: #4477aa; stroke: #4477aa"/>
     <use xlink:href="#m7d926df953" x="799.429495" y="131.385818" style="fill: #4477aa; stroke: #4477aa"/>
     <use xlink:href="#m7d926df953" x="807.910015" y="166.4933" style="fill: #4477aa; stroke: #4477aa"/>
     <use xlink:href="#m7d926df953" x="816.390536" y="102.020118" style="fill: #4477aa; stroke: #4477aa"/>
     <use xlink:href="#m7d926df953" x="824.871056" y="176.122159" style="fill: #4477aa; stroke: #4477aa"/>
     <use xlink:href="#m7d926df953" x="833.351576" y="138.193577" style="fill: #4477aa; stroke: #4477aa"/>
     <use xlink:href="#m7d926df953" x="841.832097" y="184.405792" style="fill: #4477aa; stroke: #4477aa"/>
     <use xlink:href="#m7d926df953" x="850.312617" y="135.9719" style="fill: #4477aa; stroke: #4477aa"/>
     <use xlink:href="#m7d926df953" x="858.793137" y="179.632522" style="fill: #4477aa; stroke: #4477aa"/>
     <use xlink:href="#m7d926df953" x="867.273657" y="219.77148" style="fill: #4477aa; stroke: #4477aa"/>
     <use xlink:href="#m7d926df953" x="875.754178" y="148.800158" style="fill: #4477aa; stroke: #4477aa"/>
     <use xlink:href="#m7d926df953" x="884.234698" y="128.314089" style="fill: #4477aa; stroke: #4477aa"/>
     <use xlink:href="#m7d926df953" x="892.715218" y="159.156155" style="fill: #4477aa; stroke: #4477aa"/>
     <use xlink:href="#m7d926df953" x="901.195739" y="214.358688" style="fill: #4477aa; stroke: #4477aa"/>
     <use xlink:href="#m7d926df953" x="909.676259" y="169.034013" style="fill: #4477aa; stroke: #4477aa"/>
     <use xlink:href="#m7d926df953" x="918.156779" y="123.788243" style="fill: #4477aa; stroke: #4477aa"/>
    </g>
   </g>
   <g id="matplotlib.axis_5">
    <g id="xtick_9">
     <g id="line2d_27">
      <g>
       <use xlink:href="#m338134fa33" x="672.22169" y="240.24351" style="stroke: #000000; stroke-width: 0.8"/>
      </g>
     </g>
     <g id="text_33">
      <!-- 0 -->
      <g transform="translate(669.04044 254.841947) scale(0.1 -0.1)">
       <use xlink:href="#DejaVuSans-30"/>
      </g>
     </g>
    </g>
    <g id="xtick_10">
     <g id="line2d_28">
      <g>
       <use xlink:href="#m338134fa33" x="714.624292" y="240.24351" style="stroke: #000000; stroke-width: 0.8"/>
      </g>
     </g>
     <g id="text_34">
      <!-- 5 -->
      <g transform="translate(711.443042 254.841947) scale(0.1 -0.1)">
       <use xlink:href="#DejaVuSans-35"/>
      </g>
     </g>
    </g>
    <g id="xtick_11">
     <g id="line2d_29">
      <g>
       <use xlink:href="#m338134fa33" x="757.026893" y="240.24351" style="stroke: #000000; stroke-width: 0.8"/>
      </g>
     </g>
     <g id="text_35">
      <!-- 10 -->
      <g transform="translate(750.664393 254.841947) scale(0.1 -0.1)">
       <use xlink:href="#DejaVuSans-31"/>
       <use xlink:href="#DejaVuSans-30" transform="translate(63.623047 0)"/>
      </g>
     </g>
    </g>
    <g id="xtick_12">
     <g id="line2d_30">
      <g>
       <use xlink:href="#m338134fa33" x="799.429495" y="240.24351" style="stroke: #000000; stroke-width: 0.8"/>
      </g>
     </g>
     <g id="text_36">
      <!-- 15 -->
      <g transform="translate(793.066995 254.841947) scale(0.1 -0.1)">
       <use xlink:href="#DejaVuSans-31"/>
       <use xlink:href="#DejaVuSans-35" transform="translate(63.623047 0)"/>
      </g>
     </g>
    </g>
    <g id="xtick_13">
     <g id="line2d_31">
      <g>
       <use xlink:href="#m338134fa33" x="841.832097" y="240.24351" style="stroke: #000000; stroke-width: 0.8"/>
      </g>
     </g>
     <g id="text_37">
      <!-- 20 -->
      <g transform="translate(835.469597 254.841947) scale(0.1 -0.1)">
       <use xlink:href="#DejaVuSans-32"/>
       <use xlink:href="#DejaVuSans-30" transform="translate(63.623047 0)"/>
      </g>
     </g>
    </g>
    <g id="xtick_14">
     <g id="line2d_32">
      <g>
       <use xlink:href="#m338134fa33" x="884.234698" y="240.24351" style="stroke: #000000; stroke-width: 0.8"/>
      </g>
     </g>
     <g id="text_38">
      <!-- 25 -->
      <g transform="translate(877.872198 254.841947) scale(0.1 -0.1)">
       <use xlink:href="#DejaVuSans-32"/>
       <use xlink:href="#DejaVuSans-35" transform="translate(63.623047 0)"/>
      </g>
     </g>
    </g>
    <g id="xtick_15">
     <g id="line2d_33">
      <g>
       <use xlink:href="#m338134fa33" x="926.6373" y="240.24351" style="stroke: #000000; stroke-width: 0.8"/>
      </g>
     </g>
     <g id="text_39">
      <!-- 30 -->
      <g transform="translate(920.2748 254.841947) scale(0.1 -0.1)">
       <use xlink:href="#DejaVuSans-33"/>
       <use xlink:href="#DejaVuSans-30" transform="translate(63.623047 0)"/>
      </g>
     </g>
    </g>
    <g id="text_40">
     <!-- Completed discovery root -->
     <g transform="translate(730.690016 268.520072) scale(0.1 -0.1)">
      <use xlink:href="#DejaVuSans-43"/>
      <use xlink:href="#DejaVuSans-6f" transform="translate(69.824219 0)"/>
      <use xlink:href="#DejaVuSans-6d" transform="translate(131.005859 0)"/>
      <use xlink:href="#DejaVuSans-70" transform="translate(228.417969 0)"/>
      <use xlink:href="#DejaVuSans-6c" transform="translate(291.894531 0)"/>
      <use xlink:href="#DejaVuSans-65" transform="translate(319.677734 0)"/>
      <use xlink:href="#DejaVuSans-74" transform="translate(381.201172 0)"/>
      <use xlink:href="#DejaVuSans-65" transform="translate(420.410156 0)"/>
      <use xlink:href="#DejaVuSans-64" transform="translate(481.933594 0)"/>
      <use xlink:href="#DejaVuSans-20" transform="translate(545.410156 0)"/>
      <use xlink:href="#DejaVuSans-64" transform="translate(577.197266 0)"/>
      <use xlink:href="#DejaVuSans-69" transform="translate(640.673828 0)"/>
      <use xlink:href="#DejaVuSans-73" transform="translate(668.457031 0)"/>
      <use xlink:href="#DejaVuSans-63" transform="translate(720.556641 0)"/>
      <use xlink:href="#DejaVuSans-6f" transform="translate(775.537109 0)"/>
      <use xlink:href="#DejaVuSans-76" transform="translate(836.71875 0)"/>
      <use xlink:href="#DejaVuSans-65" transform="translate(895.898438 0)"/>
      <use xlink:href="#DejaVuSans-72" transform="translate(957.421875 0)"/>
      <use xlink:href="#DejaVuSans-79" transform="translate(998.535156 0)"/>
      <use xlink:href="#DejaVuSans-20" transform="translate(1057.714844 0)"/>
      <use xlink:href="#DejaVuSans-72" transform="translate(1089.501953 0)"/>
      <use xlink:href="#DejaVuSans-6f" transform="translate(1128.365234 0)"/>
      <use xlink:href="#DejaVuSans-6f" transform="translate(1189.546875 0)"/>
      <use xlink:href="#DejaVuSans-74" transform="translate(1250.728516 0)"/>
     </g>
    </g>
   </g>
   <g id="matplotlib.axis_6">
    <g id="ytick_18">
     <g id="line2d_34">
      <g>
       <use xlink:href="#ma0d4652262" x="659.924936" y="220.630833" style="stroke: #000000; stroke-width: 0.8"/>
      </g>
     </g>
     <g id="text_41">
      <!-- 20 -->
      <g transform="translate(640.199936 224.430052) scale(0.1 -0.1)">
       <use xlink:href="#DejaVuSans-32"/>
       <use xlink:href="#DejaVuSans-30" transform="translate(63.623047 0)"/>
      </g>
     </g>
    </g>
    <g id="ytick_19">
     <g id="line2d_35">
      <g>
       <use xlink:href="#ma0d4652262" x="659.924936" y="176.730261" style="stroke: #000000; stroke-width: 0.8"/>
      </g>
     </g>
     <g id="text_42">
      <!-- 30 -->
      <g transform="translate(640.199936 180.52948) scale(0.1 -0.1)">
       <use xlink:href="#DejaVuSans-33"/>
       <use xlink:href="#DejaVuSans-30" transform="translate(63.623047 0)"/>
      </g>
     </g>
    </g>
    <g id="ytick_20">
     <g id="line2d_36">
      <g>
       <use xlink:href="#ma0d4652262" x="659.924936" y="132.829689" style="stroke: #000000; stroke-width: 0.8"/>
      </g>
     </g>
     <g id="text_43">
      <!-- 40 -->
      <g transform="translate(640.199936 136.628908) scale(0.1 -0.1)">
       <use xlink:href="#DejaVuSans-34"/>
       <use xlink:href="#DejaVuSans-30" transform="translate(63.623047 0)"/>
      </g>
     </g>
    </g>
    <g id="ytick_21">
     <g id="line2d_37">
      <g>
       <use xlink:href="#ma0d4652262" x="659.924936" y="88.929118" style="stroke: #000000; stroke-width: 0.8"/>
      </g>
     </g>
     <g id="text_44">
      <!-- 50 -->
      <g transform="translate(640.199936 92.728336) scale(0.1 -0.1)">
       <use xlink:href="#DejaVuSans-35"/>
       <use xlink:href="#DejaVuSans-30" transform="translate(63.623047 0)"/>
      </g>
     </g>
    </g>
    <g id="ytick_22">
     <g id="line2d_38">
      <g>
       <use xlink:href="#ma0d4652262" x="659.924936" y="45.028546" style="stroke: #000000; stroke-width: 0.8"/>
      </g>
     </g>
     <g id="text_45">
      <!-- 60 -->
      <g transform="translate(640.199936 48.827764) scale(0.1 -0.1)">
       <use xlink:href="#DejaVuSans-36"/>
       <use xlink:href="#DejaVuSans-30" transform="translate(63.623047 0)"/>
      </g>
     </g>
    </g>
    <g id="text_46">
     <!-- Seconds -->
     <g transform="translate(634.120248 158.995084) rotate(-90) scale(0.1 -0.1)">
      <defs>
       <path id="DejaVuSans-53" d="M 3425 4513 
L 3425 3897 
Q 3066 4069 2747 4153 
Q 2428 4238 2131 4238 
Q 1616 4238 1336 4038 
Q 1056 3838 1056 3469 
Q 1056 3159 1242 3001 
Q 1428 2844 1947 2747 
L 2328 2669 
Q 3034 2534 3370 2195 
Q 3706 1856 3706 1288 
Q 3706 609 3251 259 
Q 2797 -91 1919 -91 
Q 1588 -91 1214 -16 
Q 841 59 441 206 
L 441 856 
Q 825 641 1194 531 
Q 1563 422 1919 422 
Q 2459 422 2753 634 
Q 3047 847 3047 1241 
Q 3047 1584 2836 1778 
Q 2625 1972 2144 2069 
L 1759 2144 
Q 1053 2284 737 2584 
Q 422 2884 422 3419 
Q 422 4038 858 4394 
Q 1294 4750 2059 4750 
Q 2388 4750 2728 4690 
Q 3069 4631 3425 4513 
z
" transform="scale(0.015625)"/>
      </defs>
      <use xlink:href="#DejaVuSans-53"/>
      <use xlink:href="#DejaVuSans-65" transform="translate(63.476562 0)"/>
      <use xlink:href="#DejaVuSans-63" transform="translate(125 0)"/>
      <use xlink:href="#DejaVuSans-6f" transform="translate(179.980469 0)"/>
      <use xlink:href="#DejaVuSans-6e" transform="translate(241.162109 0)"/>
      <use xlink:href="#DejaVuSans-64" transform="translate(304.541016 0)"/>
      <use xlink:href="#DejaVuSans-73" transform="translate(368.017578 0)"/>
     </g>
    </g>
   </g>
   <g id="line2d_39">
    <path d="M 659.924936 45.028546 
L 930.453534 45.028546 
" clip-path="url(#p9d7d11de77)" style="fill: none; stroke-dasharray: 5.55,2.4; stroke-dashoffset: 0; stroke: #bb4444; stroke-width: 1.5"/>
   </g>
   <g id="patch_16">
    <path d="M 659.924936 240.24351 
L 659.924936 35.732595 
" style="fill: none; stroke: #000000; stroke-width: 0.8; stroke-linejoin: miter; stroke-linecap: square"/>
   </g>
   <g id="patch_17">
    <path d="M 930.453534 240.24351 
L 930.453534 35.732595 
" style="fill: none; stroke: #000000; stroke-width: 0.8; stroke-linejoin: miter; stroke-linecap: square"/>
   </g>
   <g id="patch_18">
    <path d="M 659.924936 240.24351 
L 930.453534 240.24351 
" style="fill: none; stroke: #000000; stroke-width: 0.8; stroke-linejoin: miter; stroke-linecap: square"/>
   </g>
   <g id="patch_19">
    <path d="M 659.924936 35.732595 
L 930.453534 35.732595 
" style="fill: none; stroke: #000000; stroke-width: 0.8; stroke-linejoin: miter; stroke-linecap: square"/>
   </g>
   <g id="text_47">
    <!-- Serial discovery cost, including restore -->
    <g transform="translate(678.874547 29.732595) scale(0.12 -0.12)">
     <defs>
      <path id="DejaVuSans-2c" d="M 750 794 
L 1409 794 
L 1409 256 
L 897 -744 
L 494 -744 
L 750 256 
L 750 794 
z
" transform="scale(0.015625)"/>
     </defs>
     <use xlink:href="#DejaVuSans-53"/>
     <use xlink:href="#DejaVuSans-65" transform="translate(63.476562 0)"/>
     <use xlink:href="#DejaVuSans-72" transform="translate(125 0)"/>
     <use xlink:href="#DejaVuSans-69" transform="translate(166.113281 0)"/>
     <use xlink:href="#DejaVuSans-61" transform="translate(193.896484 0)"/>
     <use xlink:href="#DejaVuSans-6c" transform="translate(255.175781 0)"/>
     <use xlink:href="#DejaVuSans-20" transform="translate(282.958984 0)"/>
     <use xlink:href="#DejaVuSans-64" transform="translate(314.746094 0)"/>
     <use xlink:href="#DejaVuSans-69" transform="translate(378.222656 0)"/>
     <use xlink:href="#DejaVuSans-73" transform="translate(406.005859 0)"/>
     <use xlink:href="#DejaVuSans-63" transform="translate(458.105469 0)"/>
     <use xlink:href="#DejaVuSans-6f" transform="translate(513.085938 0)"/>
     <use xlink:href="#DejaVuSans-76" transform="translate(574.267578 0)"/>
     <use xlink:href="#DejaVuSans-65" transform="translate(633.447266 0)"/>
     <use xlink:href="#DejaVuSans-72" transform="translate(694.970703 0)"/>
     <use xlink:href="#DejaVuSans-79" transform="translate(736.083984 0)"/>
     <use xlink:href="#DejaVuSans-20" transform="translate(795.263672 0)"/>
     <use xlink:href="#DejaVuSans-63" transform="translate(827.050781 0)"/>
     <use xlink:href="#DejaVuSans-6f" transform="translate(882.03125 0)"/>
     <use xlink:href="#DejaVuSans-73" transform="translate(943.212891 0)"/>
     <use xlink:href="#DejaVuSans-74" transform="translate(995.3125 0)"/>
     <use xlink:href="#DejaVuSans-2c" transform="translate(1034.521484 0)"/>
     <use xlink:href="#DejaVuSans-20" transform="translate(1066.308594 0)"/>
     <use xlink:href="#DejaVuSans-69" transform="translate(1098.095703 0)"/>
     <use xlink:href="#DejaVuSans-6e" transform="translate(1125.878906 0)"/>
     <use xlink:href="#DejaVuSans-63" transform="translate(1189.257812 0)"/>
     <use xlink:href="#DejaVuSans-6c" transform="translate(1244.238281 0)"/>
     <use xlink:href="#DejaVuSans-75" transform="translate(1272.021484 0)"/>
     <use xlink:href="#DejaVuSans-64" transform="translate(1335.400391 0)"/>
     <use xlink:href="#DejaVuSans-69" transform="translate(1398.876953 0)"/>
     <use xlink:href="#DejaVuSans-6e" transform="translate(1426.660156 0)"/>
     <use xlink:href="#DejaVuSans-67" transform="translate(1490.039062 0)"/>
     <use xlink:href="#DejaVuSans-20" transform="translate(1553.515625 0)"/>
     <use xlink:href="#DejaVuSans-72" transform="translate(1585.302734 0)"/>
     <use xlink:href="#DejaVuSans-65" transform="translate(1624.166016 0)"/>
     <use xlink:href="#DejaVuSans-73" transform="translate(1685.689453 0)"/>
     <use xlink:href="#DejaVuSans-74" transform="translate(1737.789062 0)"/>
     <use xlink:href="#DejaVuSans-6f" transform="translate(1776.998047 0)"/>
     <use xlink:href="#DejaVuSans-72" transform="translate(1838.179688 0)"/>
     <use xlink:href="#DejaVuSans-65" transform="translate(1877.042969 0)"/>
    </g>
   </g>
   <g id="legend_2">
    <g id="patch_20">
     <path d="M 666.924936 146.827115 
L 764.838998 146.827115 
Q 766.838998 146.827115 766.838998 144.827115 
L 766.838998 131.14899 
Q 766.838998 129.14899 764.838998 129.14899 
L 666.924936 129.14899 
Q 664.924936 129.14899 664.924936 131.14899 
L 664.924936 144.827115 
Q 664.924936 146.827115 666.924936 146.827115 
z
" style="fill: #ffffff; opacity: 0.8; stroke: #cccccc; stroke-linejoin: miter"/>
    </g>
    <g id="line2d_40">
     <path d="M 668.924936 137.247427 
L 678.924936 137.247427 
L 688.924936 137.247427 
" style="fill: none; stroke-dasharray: 5.55,2.4; stroke-dashoffset: 0; stroke: #bb4444; stroke-width: 1.5"/>
    </g>
    <g id="text_48">
     <!-- 60s p95 gate -->
     <g transform="translate(696.924936 140.747427) scale(0.1 -0.1)">
      <defs>
       <path id="DejaVuSans-39" d="M 703 97 
L 703 672 
Q 941 559 1184 500 
Q 1428 441 1663 441 
Q 2288 441 2617 861 
Q 2947 1281 2994 2138 
Q 2813 1869 2534 1725 
Q 2256 1581 1919 1581 
Q 1219 1581 811 2004 
Q 403 2428 403 3163 
Q 403 3881 828 4315 
Q 1253 4750 1959 4750 
Q 2769 4750 3195 4129 
Q 3622 3509 3622 2328 
Q 3622 1225 3098 567 
Q 2575 -91 1691 -91 
Q 1453 -91 1209 -44 
Q 966 3 703 97 
z
M 1959 2075 
Q 2384 2075 2632 2365 
Q 2881 2656 2881 3163 
Q 2881 3666 2632 3958 
Q 2384 4250 1959 4250 
Q 1534 4250 1286 3958 
Q 1038 3666 1038 3163 
Q 1038 2656 1286 2365 
Q 1534 2075 1959 2075 
z
" transform="scale(0.015625)"/>
      </defs>
      <use xlink:href="#DejaVuSans-36"/>
      <use xlink:href="#DejaVuSans-30" transform="translate(63.623047 0)"/>
      <use xlink:href="#DejaVuSans-73" transform="translate(127.246094 0)"/>
      <use xlink:href="#DejaVuSans-20" transform="translate(179.345703 0)"/>
      <use xlink:href="#DejaVuSans-70" transform="translate(211.132812 0)"/>
      <use xlink:href="#DejaVuSans-39" transform="translate(274.609375 0)"/>
      <use xlink:href="#DejaVuSans-35" transform="translate(338.232422 0)"/>
      <use xlink:href="#DejaVuSans-20" transform="translate(401.855469 0)"/>
      <use xlink:href="#DejaVuSans-67" transform="translate(433.642578 0)"/>
      <use xlink:href="#DejaVuSans-61" transform="translate(497.119141 0)"/>
      <use xlink:href="#DejaVuSans-74" transform="translate(558.398438 0)"/>
      <use xlink:href="#DejaVuSans-65" transform="translate(597.607422 0)"/>
     </g>
    </g>
   </g>
  </g>
  <g id="text_49">
   <!-- E149: conditional TRAIN-root teacher pilot; no network training or independent full-run wins -->
   <g transform="translate(192.22125 12.118365) scale(0.12 -0.12)">
    <defs>
     <path id="DejaVuSans-45" d="M 628 4666 
L 3578 4666 
L 3578 4134 
L 1259 4134 
L 1259 2753 
L 3481 2753 
L 3481 2222 
L 1259 2222 
L 1259 531 
L 3634 531 
L 3634 0 
L 628 0 
L 628 4666 
z
" transform="scale(0.015625)"/>
     <path id="DejaVuSans-3a" d="M 750 794 
L 1409 794 
L 1409 0 
L 750 0 
L 750 794 
z
M 750 3309 
L 1409 3309 
L 1409 2516 
L 750 2516 
L 750 3309 
z
" transform="scale(0.015625)"/>
     <path id="DejaVuSans-54" d="M -19 4666 
L 3928 4666 
L 3928 4134 
L 2272 4134 
L 2272 0 
L 1638 0 
L 1638 4134 
L -19 4134 
L -19 4666 
z
" transform="scale(0.015625)"/>
     <path id="DejaVuSans-41" d="M 2188 4044 
L 1331 1722 
L 3047 1722 
L 2188 4044 
z
M 1831 4666 
L 2547 4666 
L 4325 0 
L 3669 0 
L 3244 1197 
L 1141 1197 
L 716 0 
L 50 0 
L 1831 4666 
z
" transform="scale(0.015625)"/>
     <path id="DejaVuSans-4e" d="M 628 4666 
L 1478 4666 
L 3547 763 
L 3547 4666 
L 4159 4666 
L 4159 0 
L 3309 0 
L 1241 3903 
L 1241 0 
L 628 0 
L 628 4666 
z
" transform="scale(0.015625)"/>
     <path id="DejaVuSans-3b" d="M 750 3309 
L 1409 3309 
L 1409 2516 
L 750 2516 
L 750 3309 
z
M 750 794 
L 1409 794 
L 1409 256 
L 897 -744 
L 494 -744 
L 750 256 
L 750 794 
z
" transform="scale(0.015625)"/>
     <path id="DejaVuSans-6b" d="M 581 4863 
L 1159 4863 
L 1159 1991 
L 2875 3500 
L 3609 3500 
L 1753 1863 
L 3688 0 
L 2938 0 
L 1159 1709 
L 1159 0 
L 581 0 
L 581 4863 
z
" transform="scale(0.015625)"/>
     <path id="DejaVuSans-66" d="M 2375 4863 
L 2375 4384 
L 1825 4384 
Q 1516 4384 1395 4259 
Q 1275 4134 1275 3809 
L 1275 3500 
L 2222 3500 
L 2222 3053 
L 1275 3053 
L 1275 0 
L 697 0 
L 697 3053 
L 147 3053 
L 147 3500 
L 697 3500 
L 697 3744 
Q 697 4328 969 4595 
Q 1241 4863 1831 4863 
L 2375 4863 
z
" transform="scale(0.015625)"/>
    </defs>
    <use xlink:href="#DejaVuSans-45"/>
    <use xlink:href="#DejaVuSans-31" transform="translate(63.183594 0)"/>
    <use xlink:href="#DejaVuSans-34" transform="translate(126.806641 0)"/>
    <use xlink:href="#DejaVuSans-39" transform="translate(190.429688 0)"/>
    <use xlink:href="#DejaVuSans-3a" transform="translate(254.052734 0)"/>
    <use xlink:href="#DejaVuSans-20" transform="translate(287.744141 0)"/>
    <use xlink:href="#DejaVuSans-63" transform="translate(319.53125 0)"/>
    <use xlink:href="#DejaVuSans-6f" transform="translate(374.511719 0)"/>
    <use xlink:href="#DejaVuSans-6e" transform="translate(435.693359 0)"/>
    <use xlink:href="#DejaVuSans-64" transform="translate(499.072266 0)"/>
    <use xlink:href="#DejaVuSans-69" transform="translate(562.548828 0)"/>
    <use xlink:href="#DejaVuSans-74" transform="translate(590.332031 0)"/>
    <use xlink:href="#DejaVuSans-69" transform="translate(629.541016 0)"/>
    <use xlink:href="#DejaVuSans-6f" transform="translate(657.324219 0)"/>
    <use xlink:href="#DejaVuSans-6e" transform="translate(718.505859 0)"/>
    <use xlink:href="#DejaVuSans-61" transform="translate(781.884766 0)"/>
    <use xlink:href="#DejaVuSans-6c" transform="translate(843.164062 0)"/>
    <use xlink:href="#DejaVuSans-20" transform="translate(870.947266 0)"/>
    <use xlink:href="#DejaVuSans-54" transform="translate(902.734375 0)"/>
    <use xlink:href="#DejaVuSans-52" transform="translate(963.818359 0)"/>
    <use xlink:href="#DejaVuSans-41" transform="translate(1029.300781 0)"/>
    <use xlink:href="#DejaVuSans-49" transform="translate(1097.708984 0)"/>
    <use xlink:href="#DejaVuSans-4e" transform="translate(1127.201172 0)"/>
    <use xlink:href="#DejaVuSans-2d" transform="translate(1202.005859 0)"/>
    <use xlink:href="#DejaVuSans-72" transform="translate(1238.089844 0)"/>
    <use xlink:href="#DejaVuSans-6f" transform="translate(1276.953125 0)"/>
    <use xlink:href="#DejaVuSans-6f" transform="translate(1338.134766 0)"/>
    <use xlink:href="#DejaVuSans-74" transform="translate(1399.316406 0)"/>
    <use xlink:href="#DejaVuSans-20" transform="translate(1438.525391 0)"/>
    <use xlink:href="#DejaVuSans-74" transform="translate(1470.3125 0)"/>
    <use xlink:href="#DejaVuSans-65" transform="translate(1509.521484 0)"/>
    <use xlink:href="#DejaVuSans-61" transform="translate(1571.044922 0)"/>
    <use xlink:href="#DejaVuSans-63" transform="translate(1632.324219 0)"/>
    <use xlink:href="#DejaVuSans-68" transform="translate(1687.304688 0)"/>
    <use xlink:href="#DejaVuSans-65" transform="translate(1750.683594 0)"/>
    <use xlink:href="#DejaVuSans-72" transform="translate(1812.207031 0)"/>
    <use xlink:href="#DejaVuSans-20" transform="translate(1853.320312 0)"/>
    <use xlink:href="#DejaVuSans-70" transform="translate(1885.107422 0)"/>
    <use xlink:href="#DejaVuSans-69" transform="translate(1948.583984 0)"/>
    <use xlink:href="#DejaVuSans-6c" transform="translate(1976.367188 0)"/>
    <use xlink:href="#DejaVuSans-6f" transform="translate(2004.150391 0)"/>
    <use xlink:href="#DejaVuSans-74" transform="translate(2065.332031 0)"/>
    <use xlink:href="#DejaVuSans-3b" transform="translate(2104.541016 0)"/>
    <use xlink:href="#DejaVuSans-20" transform="translate(2138.232422 0)"/>
    <use xlink:href="#DejaVuSans-6e" transform="translate(2170.019531 0)"/>
    <use xlink:href="#DejaVuSans-6f" transform="translate(2233.398438 0)"/>
    <use xlink:href="#DejaVuSans-20" transform="translate(2294.580078 0)"/>
    <use xlink:href="#DejaVuSans-6e" transform="translate(2326.367188 0)"/>
    <use xlink:href="#DejaVuSans-65" transform="translate(2389.746094 0)"/>
    <use xlink:href="#DejaVuSans-74" transform="translate(2451.269531 0)"/>
    <use xlink:href="#DejaVuSans-77" transform="translate(2490.478516 0)"/>
    <use xlink:href="#DejaVuSans-6f" transform="translate(2572.265625 0)"/>
    <use xlink:href="#DejaVuSans-72" transform="translate(2633.447266 0)"/>
    <use xlink:href="#DejaVuSans-6b" transform="translate(2674.560547 0)"/>
    <use xlink:href="#DejaVuSans-20" transform="translate(2732.470703 0)"/>
    <use xlink:href="#DejaVuSans-74" transform="translate(2764.257812 0)"/>
    <use xlink:href="#DejaVuSans-72" transform="translate(2803.466797 0)"/>
    <use xlink:href="#DejaVuSans-61" transform="translate(2844.580078 0)"/>
    <use xlink:href="#DejaVuSans-69" transform="translate(2905.859375 0)"/>
    <use xlink:href="#DejaVuSans-6e" transform="translate(2933.642578 0)"/>
    <use xlink:href="#DejaVuSans-69" transform="translate(2997.021484 0)"/>
    <use xlink:href="#DejaVuSans-6e" transform="translate(3024.804688 0)"/>
    <use xlink:href="#DejaVuSans-67" transform="translate(3088.183594 0)"/>
    <use xlink:href="#DejaVuSans-20" transform="translate(3151.660156 0)"/>
    <use xlink:href="#DejaVuSans-6f" transform="translate(3183.447266 0)"/>
    <use xlink:href="#DejaVuSans-72" transform="translate(3244.628906 0)"/>
    <use xlink:href="#DejaVuSans-20" transform="translate(3285.742188 0)"/>
    <use xlink:href="#DejaVuSans-69" transform="translate(3317.529297 0)"/>
    <use xlink:href="#DejaVuSans-6e" transform="translate(3345.3125 0)"/>
    <use xlink:href="#DejaVuSans-64" transform="translate(3408.691406 0)"/>
    <use xlink:href="#DejaVuSans-65" transform="translate(3472.167969 0)"/>
    <use xlink:href="#DejaVuSans-70" transform="translate(3533.691406 0)"/>
    <use xlink:href="#DejaVuSans-65" transform="translate(3597.167969 0)"/>
    <use xlink:href="#DejaVuSans-6e" transform="translate(3658.691406 0)"/>
    <use xlink:href="#DejaVuSans-64" transform="translate(3722.070312 0)"/>
    <use xlink:href="#DejaVuSans-65" transform="translate(3785.546875 0)"/>
    <use xlink:href="#DejaVuSans-6e" transform="translate(3847.070312 0)"/>
    <use xlink:href="#DejaVuSans-74" transform="translate(3910.449219 0)"/>
    <use xlink:href="#DejaVuSans-20" transform="translate(3949.658203 0)"/>
    <use xlink:href="#DejaVuSans-66" transform="translate(3981.445312 0)"/>
    <use xlink:href="#DejaVuSans-75" transform="translate(4016.650391 0)"/>
    <use xlink:href="#DejaVuSans-6c" transform="translate(4080.029297 0)"/>
    <use xlink:href="#DejaVuSans-6c" transform="translate(4107.8125 0)"/>
    <use xlink:href="#DejaVuSans-2d" transform="translate(4135.595703 0)"/>
    <use xlink:href="#DejaVuSans-72" transform="translate(4171.679688 0)"/>
    <use xlink:href="#DejaVuSans-75" transform="translate(4212.792969 0)"/>
    <use xlink:href="#DejaVuSans-6e" transform="translate(4276.171875 0)"/>
    <use xlink:href="#DejaVuSans-20" transform="translate(4339.550781 0)"/>
    <use xlink:href="#DejaVuSans-77" transform="translate(4371.337891 0)"/>
    <use xlink:href="#DejaVuSans-69" transform="translate(4453.125 0)"/>
    <use xlink:href="#DejaVuSans-6e" transform="translate(4480.908203 0)"/>
    <use xlink:href="#DejaVuSans-73" transform="translate(4544.287109 0)"/>
   </g>
  </g>
 </g>
 <defs>
  <clipPath id="p87b18098c3">
   <rect x="36.403365" y="35.732595" width="270.528598" height="204.510915"/>
  </clipPath>
  <clipPath id="pcdcdceb81c">
   <rect x="349.753213" y="35.732595" width="270.528598" height="204.510915"/>
  </clipPath>
  <clipPath id="p9d7d11de77">
   <rect x="659.924936" y="35.732595" width="270.528598" height="204.510915"/>
  </clipPath>
 </defs>
</svg>
